<svg xmlns="http://www.w3.org/2000/svg" xmlns:xlink="http://www.w3.org/1999/xlink" xmlns:lucid="lucid" width="1657.56" height="1375"><g transform="translate(2522 2401)" lucid:page-tab-id="0_0"><path d="M-3000-2500h2500v1500h-2500z" fill="#fff"/><path d="M-1821-2379.56a12 12 0 0 1 12-12h376a12 12 0 0 1 12 12v226a12 12 0 0 1-12 12h-376a12 12 0 0 1-12-12z" fill="#edf5ff"/><path d="M-1821-2351.56h400v36h-400z" fill="#edf5ff"/><path d="M-1821-2316.56h400v36h-400z" fill="#edf5ff"/><path d="M-1821-2281.56h400v36h-400z" fill="#edf5ff"/><path d="M-1821-2246.56h400v36h-400z" fill="#edf5ff"/><path d="M-1821-2211.56h400v36h-400z" fill="#edf5ff"/><path d="M-1821-2176.56h400v23a12 12 0 0 1-12 12h-376a12 12 0 0 1-12-12z" fill="#edf5ff"/><path d="M-1820-2351.56h398-398zM-1821-2379.56a12 12 0 0 1 12-12h376a12 12 0 0 1 12 12v226a12 12 0 0 1-12 12h-376a12 12 0 0 1-12-12zM-1557.72-2350.56v208z" stroke="#6db1ff" stroke-width="2" fill="none"/><use xlink:href="#a" transform="matrix(1,0,0,1,-1811,-2391.5611791458205) translate(156.66124131944446 25.91362847222222)"/><use xlink:href="#b" transform="matrix(1,0,0,1,-1816,-2349.0611791458205) translate(0 20.91362847222222)"/><use xlink:href="#c" transform="matrix(1,0,0,1,-1816,-2349.0611791458205) translate(106.6840277777778 20.91362847222222)"/><use xlink:href="#d" transform="matrix(1,0,0,1,-1552.718768855373,-2349.0611791458205) translate(0 20.91362847222222)"/><use xlink:href="#e" transform="matrix(1,0,0,1,-1816,-2314.0611791458205) translate(0 20.91362847222222)"/><use xlink:href="#f" transform="matrix(1,0,0,1,-1816,-2279.0611791458205) translate(0 20.91362847222222)"/><use xlink:href="#g" transform="matrix(1,0,0,1,-1816,-2279.0611791458205) translate(53.342013888888886 20.91362847222222)"/><use xlink:href="#h" transform="matrix(1,0,0,1,-1552.718768855373,-2279.0611791458205) translate(0 20.91362847222222)"/><use xlink:href="#f" transform="matrix(1,0,0,1,-1816,-2244.0611791458205) translate(0 20.91362847222222)"/><use xlink:href="#i" transform="matrix(1,0,0,1,-1816,-2244.0611791458205) translate(53.342013888888886 20.91362847222222)"/><use xlink:href="#h" transform="matrix(1,0,0,1,-1552.718768855373,-2244.0611791458205) translate(0 20.91362847222222)"/><use xlink:href="#j" transform="matrix(1,0,0,1,-1816,-2209.0611791458205) translate(0 20.91362847222222)"/><use xlink:href="#h" transform="matrix(1,0,0,1,-1552.718768855373,-2209.0611791458205) translate(0 20.91362847222222)"/><use xlink:href="#k" transform="matrix(1,0,0,1,-1816,-2174.0611791458205) translate(0 20.91362847222222)"/><use xlink:href="#l" transform="matrix(1,0,0,1,-1552.718768855373,-2174.0611791458205) translate(0 20.91362847222222)"/><path d="M-1885.8-2147.96a8 8 0 0 1 9.6 0l70.4 52.8a4.5 4.5 0 0 1 0 7.2l-70.4 52.8a8 8 0 0 1-9.6 0l-70.4-52.8a4.5 4.5 0 0 1 0-7.2z" stroke="#000" stroke-width="2" fill="#fff"/><use xlink:href="#m" transform="matrix(1,0,0,1,-1956,-2146.5611791458205) translate(26.92557291666666 62.408854166666664)"/><path d="M-1838-2334.06h-31a12 12 0 0 0-12 12v170.5" stroke="#333" stroke-width="2" fill="none"/><path d="M-1824-2334.06l-13 7.5v-15z" stroke="#333" stroke-width="2" fill="#333"/><path d="M-1880.03-2150.5l-.97-.06-.97.06v-1.1h1.94z" stroke="#333" stroke-width=".05" fill="#333"/><path d="M-2239-1899.56a12 12 0 0 1 12-12h414a12 12 0 0 1 12 12v226a12 12 0 0 1-12 12h-414a12 12 0 0 1-12-12z" fill="#fff0fb"/><path d="M-2239-1871.56h438v36h-438z" fill="#fff0fb"/><path d="M-2239-1836.56h438v36h-438z" fill="#fff0fb"/><path d="M-2239-1801.56h438v36h-438z" fill="#fff0fb"/><path d="M-2239-1766.56h438v36h-438z" fill="#fff0fb"/><path d="M-2239-1731.56h438v36h-438z" fill="#fff0fb"/><path d="M-2239-1696.56h438v23a12 12 0 0 1-12 12h-414a12 12 0 0 1-12-12z" fill="#fff0fb"/><path d="M-2238-1871.56h436-436zM-2239-1899.56a12 12 0 0 1 12-12h414a12 12 0 0 1 12 12v226a12 12 0 0 1-12 12h-414a12 12 0 0 1-12-12zM-1954.05-1870.56v208z" stroke="#ff80df" stroke-width="2" fill="none"/><use xlink:href="#n" transform="matrix(1,0,0,1,-2229,-1911.5611791458205) translate(155.6579861111111 25.91362847222222)"/><use xlink:href="#o" transform="matrix(1,0,0,1,-2234,-1869.0611791458205) translate(0 20.91362847222222)"/><use xlink:href="#c" transform="matrix(1,0,0,1,-2234,-1869.0611791458205) translate(146.69053819444449 20.91362847222222)"/><use xlink:href="#d" transform="matrix(1,0,0,1,-1949.0475732598245,-1869.0611791458205) translate(0 20.91362847222222)"/><use xlink:href="#p" transform="matrix(1,0,0,1,-2234,-1834.0611791458205) translate(0 20.91362847222222)"/><use xlink:href="#h" transform="matrix(1,0,0,1,-1949.0475732598245,-1834.0611791458205) translate(0 20.91362847222222)"/><use xlink:href="#q" transform="matrix(1,0,0,1,-2234,-1799.0611791458205) translate(0 20.91362847222222)"/><use xlink:href="#h" transform="matrix(1,0,0,1,-1949.0475732598245,-1799.0611791458205) translate(0 20.91362847222222)"/><use xlink:href="#r" transform="matrix(1,0,0,1,-2234,-1764.0611791458205) translate(0 20.91362847222222)"/><use xlink:href="#h" transform="matrix(1,0,0,1,-1949.0475732598245,-1764.0611791458205) translate(0 20.91362847222222)"/><use xlink:href="#k" transform="matrix(1,0,0,1,-2234,-1729.0611791458205) translate(0 20.91362847222222)"/><use xlink:href="#l" transform="matrix(1,0,0,1,-1949.0475732598245,-1729.0611791458205) translate(0 20.91362847222222)"/><use xlink:href="#s" transform="matrix(1,0,0,1,-2234,-1694.0611791458205) translate(0 20.91362847222222)"/><use xlink:href="#t" transform="matrix(1,0,0,1,-1949.0475732598245,-1694.0611791458205) translate(0 20.91362847222222)"/><path d="M-1879-2031.56v47a14 14 0 0 1-14 14h-115a10 10 0 0 0-10 10v47" stroke="#333" stroke-width="2" fill="none"/><path d="M-1883-2031.56v47a10 10 0 0 1-10 10h-115a14 14 0 0 0-14 14v47" stroke="#333" stroke-width="2" fill="none"/><path d="M-1878.03-2031.53h-1.94v-1.1h.13l1.13-.23.67-.22zM-1883.3-2032.86l1.14.23h.13v1.1h-1.94v-1.55zM-2017.03-1912.56h-1.94v-1.03h1.94zM-2021.03-1912.56h-1.94v-1.03h1.94z" stroke="#333" stroke-width=".05" fill="#333"/><path d="M-1575.27-1911.5a11 11 0 0 1 10.54 0l99.46 54.26a3.27 3.27 0 0 1 0 5.74l-99.46 54.26a11 11 0 0 1-10.54 0l-99.46-54.26a3.27 3.27 0 0 1 0-5.74z" stroke="#000" stroke-width="2" fill="#fff"/><use xlink:href="#u" transform="matrix(1,0,0,1,-1675,-1909.3693983239027) translate(15.709635416666671 62.89930555555555)"/><path d="M-1784-1854.37h105.56" stroke="#333" stroke-width="2" fill="none"/><path d="M-1798-1854.37l13-7.5v15z" stroke="#333" stroke-width="2" fill="#333"/><path d="M-1677.35-1855.28l-.1.9.1.92.03.07h-1.15v-1.94h1.15z" stroke="#333" stroke-width=".05" fill="#333"/><path d="M-1378.44-2004.87a12 12 0 0 1 12-12h448a12 12 0 0 1 12 12v331a12 12 0 0 1-12 12h-448a12 12 0 0 1-12-12z" fill="#edf5ff"/><path d="M-1378.44-1976.87h472v36h-472z" fill="#edf5ff"/><path d="M-1378.44-1941.87h472v36h-472z" fill="#edf5ff"/><path d="M-1378.44-1906.87h472v36h-472z" fill="#edf5ff"/><path d="M-1378.44-1871.87h472v36h-472z" fill="#edf5ff"/><path d="M-1378.44-1836.87h472v36h-472z" fill="#edf5ff"/><path d="M-1378.44-1801.87h472v36h-472z" fill="#edf5ff"/><path d="M-1378.44-1766.87h472v36h-472z" fill="#edf5ff"/><path d="M-1378.44-1731.87h472v36h-472z" fill="#edf5ff"/><path d="M-1378.44-1696.87h472v23a12 12 0 0 1-12 12h-448a12 12 0 0 1-12-12z" fill="#edf5ff"/><path d="M-1377.44-1976.87h470-470zM-1378.44-2004.87a12 12 0 0 1 12-12h448a12 12 0 0 1 12 12v331a12 12 0 0 1-12 12h-448a12 12 0 0 1-12-12zM-1049.47-1975.87v313z" stroke="#6db1ff" stroke-width="2" fill="none"/><use xlink:href="#v" transform="matrix(1,0,0,1,-1368.4439131101685,-2016.8693983239027) translate(0 25.91362847222222)"/><use xlink:href="#w" transform="matrix(1,0,0,1,-1373.4439131101685,-1974.3693983239027) translate(0 20.91362847222222)"/><use xlink:href="#c" transform="matrix(1,0,0,1,-1373.4439131101685,-1974.3693983239027) translate(160.0260416666667 20.91362847222222)"/><use xlink:href="#d" transform="matrix(1,0,0,1,-1044.4738502056393,-1974.3693983239027) translate(0 20.91362847222222)"/><use xlink:href="#x" transform="matrix(1,0,0,1,-1373.4439131101685,-1939.3693983239027) translate(0 20.91362847222222)"/><use xlink:href="#h" transform="matrix(1,0,0,1,-1044.4738502056393,-1939.3693983239027) translate(0 20.91362847222222)"/><use xlink:href="#y" transform="matrix(1,0,0,1,-1373.4439131101685,-1904.3693983239027) translate(0 20.91362847222222)"/><use xlink:href="#h" transform="matrix(1,0,0,1,-1044.4738502056393,-1904.3693983239027) translate(0 20.91362847222222)"/><use xlink:href="#z" transform="matrix(1,0,0,1,-1373.4439131101685,-1869.3693983239027) translate(0 20.91362847222222)"/><use xlink:href="#h" transform="matrix(1,0,0,1,-1044.4738502056393,-1869.3693983239027) translate(0 20.91362847222222)"/><use xlink:href="#A" transform="matrix(1,0,0,1,-1373.4439131101685,-1834.3693983239027) translate(0 20.91362847222222)"/><use xlink:href="#d" transform="matrix(1,0,0,1,-1044.4738502056393,-1834.3693983239027) translate(0 20.91362847222222)"/><use xlink:href="#B" transform="matrix(1,0,0,1,-1373.4439131101685,-1799.3693983239027) translate(0 20.91362847222222)"/><use xlink:href="#h" transform="matrix(1,0,0,1,-1044.4738502056393,-1799.3693983239027) translate(0 20.91362847222222)"/><use xlink:href="#C" transform="matrix(1,0,0,1,-1373.4439131101685,-1764.3693983239027) translate(0 20.91362847222222)"/><use xlink:href="#h" transform="matrix(1,0,0,1,-1044.4738502056393,-1764.3693983239027) translate(0 20.91362847222222)"/><use xlink:href="#D" transform="matrix(1,0,0,1,-1373.4439131101685,-1729.3693983239027) translate(0 20.91362847222222)"/><use xlink:href="#E" transform="matrix(1,0,0,1,-1044.4738502056393,-1729.3693983239027) translate(0 20.91362847222222)"/><use xlink:href="#k" transform="matrix(1,0,0,1,-1373.4439131101685,-1694.3693983239027) translate(0 20.91362847222222)"/><use xlink:href="#l" transform="matrix(1,0,0,1,-1044.4738502056393,-1694.3693983239027) translate(0 20.91362847222222)"/><path d="M-1461.56-1856.37h81.12M-1461.56-1852.37h81.12" stroke="#333" stroke-width="2" fill="none"/><path d="M-1461.53-1855.4h-1.16l-.24-.75-.47-.78-.4-.4h2.27zM-1461.53-1851.4h-2.26l.4-.4.46-.8.25-.74h1.17zM-1379.44-1855.4h-1.03v-1.94h1.03zM-1379.44-1851.4h-1.03v-1.94h1.03z" stroke="#333" stroke-width=".05" fill="#333"/><path d="M-1147.24-2153.27a8 8 0 0 1 9.6 0l70.4 52.8a4.5 4.5 0 0 1 0 7.2l-70.4 52.8a8 8 0 0 1-9.6 0l-70.4-52.8a4.5 4.5 0 0 1 0-7.2z" stroke="#000" stroke-width="2" fill="#fff"/><use xlink:href="#F" transform="matrix(1,0,0,1,-1217.4439131101685,-2151.8693983239027) translate(26.925572916666663 53.16885416666666)"/><use xlink:href="#G" transform="matrix(1,0,0,1,-1217.4439131101685,-2151.8693983239027) translate(47.53104166666667 84.99177083333333)"/><path d="M-1380.44-1959.37h-27a12 12 0 0 1-12-12v-113.5a12 12 0 0 1 12-12h186" stroke="#333" stroke-width="2" fill="none"/><path d="M-1379.44-1958.4h-1.03v-1.94h1.03zM-1220.45-2096.87l.1.98h-1.12v-1.94h1.1z" stroke="#333" stroke-width=".05" fill="#333"/><path d="M-1063.44-2096.87h186a12 12 0 0 1 12 12v113.5a12 12 0 0 1-12 12h-12" stroke="#333" stroke-width="2" fill="none"/><path d="M-1063.4-2095.9h-1.13l.1-.97-.1-.97h1.12z" stroke="#333" stroke-width=".05" fill="#333"/><path d="M-903.44-1959.37l13-7.5v15z" stroke="#333" stroke-width="2" fill="#333"/><path d="M-2252.7-1388a12 12 0 0 1 12-12h441.4a12 12 0 0 1 12 12v349a12 12 0 0 1-12 12h-441.4a12 12 0 0 1-12-12z" fill="#edf5ff"/><path d="M-2252.7-1360h465.4v38h-465.4z" fill="#edf5ff"/><path d="M-2252.7-1323h465.4v38h-465.4z" fill="#edf5ff"/><path d="M-2252.7-1286h465.4v38h-465.4z" fill="#edf5ff"/><path d="M-2252.7-1249h465.4v38h-465.4z" fill="#edf5ff"/><path d="M-2252.7-1212h465.4v38h-465.4z" fill="#edf5ff"/><path d="M-2252.7-1175h465.4v38h-465.4z" fill="#edf5ff"/><path d="M-2252.7-1138h465.4v38h-465.4z" fill="#edf5ff"/><path d="M-2252.7-1101h465.4v38h-465.4z" fill="#edf5ff"/><path d="M-2252.7-1064h465.4v25a12 12 0 0 1-12 12h-441.4a12 12 0 0 1-12-12z" fill="#edf5ff"/><path d="M-2251.7-1360h463.4-463.4zM-2252.7-1388a12 12 0 0 1 12-12h441.4a12 12 0 0 1 12 12v349a12 12 0 0 1-12 12h-441.4a12 12 0 0 1-12-12zM-2020-1359v331z" stroke="#6db1ff" stroke-width="2" fill="none"/><use xlink:href="#H" transform="matrix(1,0,0,1,-2242.693837048714,-1400) translate(161.18359375 27.899305555555554)"/><use xlink:href="#I" transform="matrix(1,0,0,1,-2247.693837048714,-1357.5) translate(0 23.899305555555554)"/><use xlink:href="#J" transform="matrix(1,0,0,1,-2247.693837048714,-1357.5) translate(164.84375 23.899305555555554)"/><use xlink:href="#K" transform="matrix(1,0,0,1,-2015,-1357.5) translate(0 23.899305555555554)"/><use xlink:href="#L" transform="matrix(1,0,0,1,-2247.693837048714,-1320.5) translate(0 23.899305555555554)"/><use xlink:href="#M" transform="matrix(1,0,0,1,-2247.693837048714,-1320.5) translate(54.947916666666664 23.899305555555554)"/><use xlink:href="#N" transform="matrix(1,0,0,1,-2015,-1320.5) translate(0 23.899305555555554)"/><use xlink:href="#O" transform="matrix(1,0,0,1,-2247.693837048714,-1283.5) translate(0 23.899305555555554)"/><use xlink:href="#N" transform="matrix(1,0,0,1,-2015,-1283.5) translate(0 23.899305555555554)"/><use xlink:href="#P" transform="matrix(1,0,0,1,-2247.693837048714,-1246.5) translate(0 23.899305555555554)"/><use xlink:href="#N" transform="matrix(1,0,0,1,-2015,-1246.5) translate(0 23.899305555555554)"/><use xlink:href="#Q" transform="matrix(1,0,0,1,-2247.693837048714,-1209.5) translate(0 23.899305555555554)"/><use xlink:href="#N" transform="matrix(1,0,0,1,-2015,-1209.5) translate(0 23.899305555555554)"/><use xlink:href="#R" transform="matrix(1,0,0,1,-2247.693837048714,-1172.5) translate(0 23.899305555555554)"/><use xlink:href="#K" transform="matrix(1,0,0,1,-2015,-1172.5) translate(0 23.899305555555554)"/><use xlink:href="#S" transform="matrix(1,0,0,1,-2247.693837048714,-1135.5) translate(0 23.899305555555554)"/><use xlink:href="#T" transform="matrix(1,0,0,1,-2015,-1135.5) translate(0 23.899305555555554)"/><use xlink:href="#U" transform="matrix(1,0,0,1,-2247.693837048714,-1098.5) translate(0 23.899305555555554)"/><use xlink:href="#T" transform="matrix(1,0,0,1,-2015,-1098.5) translate(0 23.899305555555554)"/><use xlink:href="#V" transform="matrix(1,0,0,1,-2247.693837048714,-1061.5) translate(0 23.899305555555554)"/><use xlink:href="#W" transform="matrix(1,0,0,1,-2015,-1061.5) translate(0 23.899305555555554)"/><path d="M-1444.68-1556.25a7.5 7.5 0 0 1 9.37 0l90.62 72.5a4.8 4.8 0 0 1 0 7.5l-90.63 72.5a7.5 7.5 0 0 1-9.38 0l-90.63-72.5a4.8 4.8 0 0 1-.02-7.5z" stroke="#000" stroke-width="2" fill="#fff"/><use xlink:href="#X" transform="matrix(1,0,0,1,-1535,-1555) translate(40.05708333333334 68.03385416666666)"/><use xlink:href="#Y" transform="matrix(1,0,0,1,-1535,-1555) translate(33.18859374999999 99.85677083333331)"/><path d="M-1785.3-1195.5h27a10 10 0 0 0 10-10v-156a14 14 0 0 1 14-14h282.3a10 10 0 0 0 10-10v-14.6" stroke="#333" stroke-width="2" fill="none"/><path d="M-1785.3-1191.5h27a14 14 0 0 0 14-14v-156a10 10 0 0 1 10-10h282.3a14 14 0 0 0 14-14v-14.6" stroke="#333" stroke-width="2" fill="none"/><path d="M-1785.28-1194.53h-1.03v-1.94h1.02zM-1785.28-1190.53h-1.03v-1.94h1.02zM-1442.27-1401.4l1.13.22h.12v1.1h-1.95v-1.58zM-1437.03-1400.08h-1.94v-1.1h.1l1.14-.23.7-.26z" stroke="#333" stroke-width=".05" fill="#333"/><path d="M-1440-1559.9v-27a12 12 0 0 1 12-12h273.56a12 12 0 0 0 12-12v-48.97" stroke="#333" stroke-width="2" fill="none"/><path d="M-1439.03-1558.83l-.97-.07-.97.07v-1.1h1.94zM-1141.47-1659.84h-1.95v-1.03h1.95z" stroke="#333" stroke-width=".05" fill="#333"/><path d="M-2321-2388a12 12 0 0 1 12-12h300a12 12 0 0 1 12 12v156a12 12 0 0 1-12 12h-300a12 12 0 0 1-12-12z" fill="#fff0fb"/><path d="M-2321-2360h324v36h-324z" fill="#fff0fb"/><path d="M-2321-2325h324v36h-324z" fill="#fff0fb"/><path d="M-2321-2290h324v36h-324z" fill="#fff0fb"/><path d="M-2321-2255h324v23a12 12 0 0 1-12 12h-300a12 12 0 0 1-12-12z" fill="#fff0fb"/><path d="M-2320-2360h322-322zM-2321-2388a12 12 0 0 1 12-12h300a12 12 0 0 1 12 12v156a12 12 0 0 1-12 12h-300a12 12 0 0 1-12-12zM-2089.64-2359v138z" stroke="#ff80df" stroke-width="2" fill="none"/><use xlink:href="#Z" transform="matrix(1,0,0,1,-2311,-2400) translate(0 25.91362847222222)"/><use xlink:href="#aa" transform="matrix(1,0,0,1,-2316,-2357.5) translate(0 20.91362847222222)"/><use xlink:href="#c" transform="matrix(1,0,0,1,-2316,-2357.5) translate(93.34852430555557 20.91362847222222)"/><use xlink:href="#d" transform="matrix(1,0,0,1,-2084.63807042981,-2357.5) translate(0 20.91362847222222)"/><use xlink:href="#ab" transform="matrix(1,0,0,1,-2316,-2322.5) translate(0 20.91362847222222)"/><use xlink:href="#ac" transform="matrix(1,0,0,1,-2316,-2322.5) translate(120.01953125000003 20.91362847222222)"/><use xlink:href="#h" transform="matrix(1,0,0,1,-2084.63807042981,-2322.5) translate(0 20.91362847222222)"/><use xlink:href="#ad" transform="matrix(1,0,0,1,-2316,-2287.5) translate(0 20.91362847222222)"/><use xlink:href="#h" transform="matrix(1,0,0,1,-2084.63807042981,-2287.5) translate(0 20.91362847222222)"/><use xlink:href="#q" transform="matrix(1,0,0,1,-2316,-2252.5) translate(0 20.91362847222222)"/><use xlink:href="#h" transform="matrix(1,0,0,1,-2084.63807042981,-2252.5) translate(0 20.91362847222222)"/><path d="M-2284.8-2122.18a8 8 0 0 1 9.6 0l70.4 52.8a4.5 4.5 0 0 1 0 7.2l-70.4 52.8a8 8 0 0 1-9.6 0l-70.4-52.8a4.5 4.5 0 0 1 0-7.2z" stroke="#000" stroke-width="2" fill="#fff"/><use xlink:href="#ae" transform="matrix(1,0,0,1,-2355,-2120.7805895729102) translate(20.057083333333324 62.408854166666664)"/><path d="M-2159-2218v34.1a12 12 0 0 1-12 12h-97a12 12 0 0 0-12 12v34.12" stroke="#333" stroke-width="2" fill="none"/><path d="M-2158.03-2217.97h-1.94v-1.03h1.94zM-2279.03-2124.72l-.97-.06-.97.06v-1.1h1.94z" stroke="#333" stroke-width=".05" fill="#333"/><path d="M-2280-2005.78v244.72a12 12 0 0 0 12 12h27" stroke="#333" stroke-width="2" fill="none"/><path d="M-2280-2006.78l.97-.06v1.1h-1.94v-1.1zM-2240-1748.1h-1.03v-1.94h1.03z" stroke="#333" stroke-width=".05" fill="#333"/><path d="M-2320-1914a6 6 0 0 1 6-6h14.75a6 6 0 0 1 6 6v24.9a6 6 0 0 1-6 6H-2314a6 6 0 0 1-6-6z" fill="none"/><use xlink:href="#af" transform="matrix(1,0,0,1,-2315,-1915) translate(0 21.58376736111111)"/><path d="M-1720-1405.95a6 6 0 0 1 6-6h114.75a6 6 0 0 1 6 6v24.9a6 6 0 0 1-6 6H-1714a6 6 0 0 1-6-6z" fill="none"/><use xlink:href="#ag" transform="matrix(1,0,0,1,-1715,-1406.9490104166666) translate(0 21.58376736111111)"/><use xlink:href="#ah" transform="matrix(1,0,0,1,-1715,-1406.9490104166666) translate(100 21.58376736111111)"/><path d="M-1357.44-1635.87a6 6 0 0 1 6-6h166.3a6 6 0 0 1 6 6v43.9a6 6 0 0 1-6 6h-166.3a6 6 0 0 1-6-6z" fill="none"/><use xlink:href="#ai" transform="matrix(1,0,0,1,-1352.4439131101685,-1636.8693983239027) translate(0 31.08376736111111)"/><use xlink:href="#aj" transform="matrix(1,0,0,1,-1352.4439131101685,-1636.8693983239027) translate(75 31.08376736111111)"/><path d="M-1821-1894a6 6 0 0 1 6-6h69.55a6 6 0 0 1 6 6v24.9a6 6 0 0 1-6 6H-1815a6 6 0 0 1-6-6z" fill="none"/><use xlink:href="#ak" transform="matrix(1,0,0,1,-1816,-1895) translate(0 21.58376736111111)"/><use xlink:href="#al" transform="matrix(1,0,0,1,-1816,-1895) translate(62.5 21.58376736111111)"/><path d="M-1478.55-1894a6 6 0 0 1 6-6h14.75a6 6 0 0 1 6 6v24.9a6 6 0 0 1-6 6h-14.75a6 6 0 0 1-6-6z" fill="none"/><use xlink:href="#af" transform="matrix(1,0,0,1,-1473.5486284722222,-1895) translate(0 21.58376736111111)"/><path d="M-1919-2254a6 6 0 0 1 6-6h8a6 6 0 0 1 6 6v24.9a6 6 0 0 1-6 6h-8a6 6 0 0 1-6-6z" fill="none"/><use xlink:href="#am" transform="matrix(1,0,0,1,-1914,-2255) translate(0 21.58376736111111)"/><path d="M-1953-2014a6 6 0 0 1 6-6h14.75a6 6 0 0 1 6 6v24.9a6 6 0 0 1-6 6H-1947a6 6 0 0 1-6-6z" fill="none"/><use xlink:href="#af" transform="matrix(1,0,0,1,-1947.9986892361112,-2015) translate(0 21.58376736111111)"/><path d="M-2260-2217.1a6 6 0 0 1 6-6h18.08a6 6 0 0 1 6 6v58.08a6 6 0 0 1-6 6H-2254a6 6 0 0 1-6-6z" fill="none"/><use xlink:href="#an" transform="matrix(1,0,0,1,-2255,-2218.1019791666668) translate(0 38.583767361111114)"/><path d="M-1297.44-2132.52a6 6 0 0 1 6-6h18.87a6 6 0 0 1 6 6v24.9a6 6 0 0 1-6 6h-18.87a6 6 0 0 1-6-6z" fill="none"/><use xlink:href="#ao" transform="matrix(1,0,0,1,-1292.4439131101685,-2133.515933515867) translate(0 21.58376736111111)"/><path d="M-997.44-2132.52a6 6 0 0 1 6-6h8a6 6 0 0 1 6 6v24.9a6 6 0 0 1-6 6h-8a6 6 0 0 1-6-6z" fill="none"/><use xlink:href="#am" transform="matrix(1,0,0,1,-992.4439131101685,-2133.515933515867) translate(0 21.58376736111111)"/><path d="M-2024.68-1616.25a7.5 7.5 0 0 1 9.37 0l90.62 72.5a4.8 4.8 0 0 1 0 7.5l-90.63 72.5a7.5 7.5 0 0 1-9.38 0l-90.63-72.5a4.8 4.8 0 0 1 0-7.5z" stroke="#000" stroke-width="2" fill="#fff"/><use xlink:href="#ap" transform="matrix(1,0,0,1,-2115,-1615) translate(40.05708333333334 68.03385416666666)"/><use xlink:href="#Y" transform="matrix(1,0,0,1,-2115,-1615) translate(33.18859374999999 99.85677083333331)"/><path d="M-2022-1402v-58.1M-2018-1402v-58.1" stroke="#333" stroke-width="2" fill="none"/><path d="M-2021.03-1401h-1.94v-1.03h1.94zM-2017.03-1401h-1.94v-1.03h1.94zM-2022.27-1461.4l1.13.22h.12v1.1h-1.95v-1.58zM-2017.03-1460.08h-1.94v-1.1h.1l1.14-.23.7-.26z" stroke="#333" stroke-width=".05" fill="#333"/><path d="M-2020-1619.9v-39.66" stroke="#333" stroke-width="2" fill="none"/><path d="M-2019.03-1618.83l-.97-.07-.97.07v-1.1h1.94zM-2019.03-1659.54h-1.94v-1.02h1.94z" stroke="#333" stroke-width=".05" fill="#333"/><path d="M-1718.74-1716.25a7.5 7.5 0 0 1 9.37 0l90.63 72.5a4.8 4.8 0 0 1 0 7.5l-90.63 72.5a7.5 7.5 0 0 1-9.37 0l-90.63-72.5a4.8 4.8 0 0 1 0-7.5z" stroke="#000" stroke-width="2" fill="#fff"/><use xlink:href="#aq" transform="matrix(1,0,0,1,-1809.058784479064,-1715) translate(67.53104166666667 82.09635416666666)"/><path d="M-1714.06-1560.1v67.05a12 12 0 0 1-12 12h-193.37a12 12 0 0 0-12 12v52.06" stroke="#333" stroke-width="2" fill="none"/><path d="M-1714.06-1561.1l.98-.07v1.1h-1.95v-1.1z" stroke="#333" stroke-width=".05" fill="#333"/><path d="M-1931.43-1403l-7.5-13h15z" stroke="#333" stroke-width="2" fill="#333"/><path d="M-1714.06-1719.9v-368.66a12 12 0 0 1 12-12h69.06a12 12 0 0 0 12-12v-27" stroke="#333" stroke-width="2" fill="none"/><path d="M-1713.08-1718.83l-.98-.07-.97.07v-1.1h1.95zM-1620.03-2139.54h-1.94v-1.02h1.94z" stroke="#333" stroke-width=".05" fill="#333"/><path d="M-1700-2077.16a6 6 0 0 1 6-6h14.75a6 6 0 0 1 6 6v24.9a6 6 0 0 1-6 6H-1694a6 6 0 0 1-6-6z" fill="none"/><use xlink:href="#af" transform="matrix(1,0,0,1,-1695,-2078.1582103958203) translate(0 21.58376736111111)"/><path d="M-1814.06-1514a6 6 0 0 1 6-6h8a6 6 0 0 1 6 6v24.9a6 6 0 0 1-6 6h-8a6 6 0 0 1-6-6z" fill="none"/><g><use xlink:href="#am" transform="matrix(1,0,0,1,-1809.058784479064,-1515) translate(0 21.58376736111111)"/></g><path d="M-2446.8-2179.08a8 8 0 0 1 9.6 0l70.4 52.8a4.5 4.5 0 0 1 0 7.2l-70.4 52.8a8 8 0 0 1-9.6 0l-70.4-52.8a4.5 4.5 0 0 1 0-7.2z" stroke="#000" stroke-width="2" fill="#fff"/><g><use xlink:href="#ar" transform="matrix(1,0,0,1,-2517,-2177.6786104062435) translate(20.05208333333333 46.98784722222222)"/><use xlink:href="#as" transform="matrix(1,0,0,1,-2517,-2177.6786104062435) translate(47.52604166666667 78.81076388888889)"/></g><path d="M-2322-2275.9h-108a12 12 0 0 0-12 12v81.22M-2322.03-2275.9h1.03" stroke="#333" stroke-width="2" fill="none"/><path d="M-2441.03-2181.62l-.97-.06-.97.06v-1.1h1.94z" stroke="#333" stroke-width=".05" fill="#333"/><path d="M-2442-2062.68V-1532a12 12 0 0 0 12 12h250.82a12 12 0 0 1 12 12v106" stroke="#333" stroke-width="2" fill="none"/><path d="M-2442-2063.68l.97-.06v1.1h-1.94v-1.1zM-2166.2-1401h-1.96v-1.03h1.95z" stroke="#333" stroke-width=".05" fill="#333"/><path d="M-2482-1970.9a6 6 0 0 1 6-6h14.75a6 6 0 0 1 6 6v24.9a6 6 0 0 1-6 6H-2476a6 6 0 0 1-6-6z" fill="none"/><g><use xlink:href="#af" transform="matrix(1,0,0,1,-2477,-1971.8980208333332) translate(0 21.58376736111111)"/></g><path d="M-2422-2274a6 6 0 0 1 6-6h18.08a6 6 0 0 1 6 6v58.1a6 6 0 0 1-6 6H-2416a6 6 0 0 1-6-6z" fill="none"/><g><use xlink:href="#an" transform="matrix(1,0,0,1,-2417,-2275) translate(0 38.583767361111114)"/></g><defs><path d="M604-135c236 0 291-142 291-376v-838h190v859c5 340-142 510-480 510-326 0-463-164-463-492v-877h191v851c-3 222 46 363 271 363" id="at"/><path d="M873-819c-18-114-119-146-250-146-163 0-245 50-245 151 0 151 170 148 294 185 182 54 388 94 388 320 0 240-189 325-439 329-245 4-410-69-454-268l159-31c24 133 136 168 295 165 144-2 270-31 270-171 0-164-195-160-331-202-167-52-350-87-350-299 0-218 173-315 413-313 220 2 373 77 412 260" id="au"/><path d="M617-1102c355 0 481 238 477 599H322c5 222 84 388 301 388 144 0 244-59 284-166l158 45C1002-72 854 20 623 20c-342 0-490-220-490-568 0-346 151-554 484-554zm291 461c-18-192-90-328-289-328-194 0-287 128-295 328h584" id="av"/><path d="M839-1102c70 0 148 7 206 17v167c-112-18-268-36-363 15-129 69-208 203-208 395V0H294c-10-367 32-789-52-1082h171c21 75 41 161 48 250h5c67-152 152-270 373-270" id="aw"/><g id="a"><use transform="matrix(0.010850694444444444,0,0,0.010850694444444444,0,0)" xlink:href="#at"/><use transform="matrix(0.010850694444444444,0,0,0.010850694444444444,13.335503472222221,0)" xlink:href="#au"/><use transform="matrix(0.010850694444444444,0,0,0.010850694444444444,26.671006944444443,0)" xlink:href="#av"/><use transform="matrix(0.010850694444444444,0,0,0.010850694444444444,40.006510416666664,0)" xlink:href="#aw"/><use transform="matrix(0.010850694444444444,0,0,0.010850694444444444,53.342013888888886,0)" xlink:href="#au"/></g><path d="M528 20c-247 0-343-132-343-381v-721h180v686c-4 177 45 284 224 277 194-8 279-136 279-336v-627h181c3 360-6 732 6 1082H885c-4-54-7-126-8-185h-3C809-64 714 20 528 20" id="ax"/><path d="M-5 220v-96h1238v96H-5" id="ay"/><path d="M745-142h380V0H143v-142h422v-798H246v-142h499v940zM545-1292v-192h200v192H545" id="az"/><path d="M865-914c-3-187-2-380-2-570h180v1261c0 76 1 155 6 223H877c-8-49-9-116-10-174h-5C801-44 708 26 530 26c-135 0-234-46-297-139s-95-232-95-419c0-377 131-566 392-566 176 0 271 63 335 184zm-286-51c-222 0-255 197-255 427 0 229 31 425 253 425 237 0 286-195 286-441 0-238-52-411-284-411" id="aA"/><g id="b"><use transform="matrix(0.010850694444444444,0,0,0.010850694444444444,0,0)" xlink:href="#ax"/><use transform="matrix(0.010850694444444444,0,0,0.010850694444444444,13.335503472222221,0)" xlink:href="#au"/><use transform="matrix(0.010850694444444444,0,0,0.010850694444444444,26.671006944444443,0)" xlink:href="#av"/><use transform="matrix(0.010850694444444444,0,0,0.010850694444444444,40.006510416666664,0)" xlink:href="#aw"/><use transform="matrix(0.010850694444444444,0,0,0.010850694444444444,53.342013888888886,0)" xlink:href="#ay"/><use transform="matrix(0.010850694444444444,0,0,0.010850694444444444,66.67751736111111,0)" xlink:href="#az"/><use transform="matrix(0.010850694444444444,0,0,0.010850694444444444,80.01302083333334,0)" xlink:href="#aA"/></g><path d="M891-1484c-201 251-362 514-362 954 0 441 161 704 362 955H701C500 176 342-90 342-532c0-440 159-704 359-952h190" id="aB"/><path d="M622-1349c296 4 497 117 497 404 0 282-193 424-485 431H353V0H162v-1349h460zm-15 684c195-3 320-88 320-277 0-184-129-255-328-254H353v531h254" id="aC"/><path d="M1003 0L516-638 353-469V0H162v-1349h191v673l572-673h225L646-777 1227 0h-224" id="aD"/><path d="M528-1484c201 248 357 511 357 952 0 442-156 709-357 957H336C537 174 700-89 700-530c0-440-163-703-364-954h192" id="aE"/><g id="c"><use transform="matrix(0.010850694444444444,0,0,0.010850694444444444,0,0)" xlink:href="#aB"/><use transform="matrix(0.010850694444444444,0,0,0.010850694444444444,13.335503472222221,0)" xlink:href="#aC"/><use transform="matrix(0.010850694444444444,0,0,0.010850694444444444,26.671006944444443,0)" xlink:href="#aD"/><use transform="matrix(0.010850694444444444,0,0,0.010850694444444444,40.006510416666664,0)" xlink:href="#aE"/></g><path d="M706-1102c241 0 344 136 343 381V0H868v-695c1-168-57-273-220-268-190 6-283 138-283 336V0H185c-3-360 6-732-6-1082h170c4 54 7 126 8 185h3c63-121 164-204 346-205" id="aF"/><path d="M682 16c-209 0-323-80-324-285v-671H190v-142h170l58-282h120v282h432v142H538v652c2 114 60 155 182 155 106 0 209-16 297-34v137C921-4 806 16 682 16" id="aG"/><g id="d"><use transform="matrix(0.010850694444444444,0,0,0.010850694444444444,0,0)" xlink:href="#az"/><use transform="matrix(0.010850694444444444,0,0,0.010850694444444444,13.335503472222221,0)" xlink:href="#aF"/><use transform="matrix(0.010850694444444444,0,0,0.010850694444444444,26.671006944444443,0)" xlink:href="#aG"/></g><path d="M1000-272c3 95 12 159 101 161 21 0 41-3 59-7V-6c-44 10-86 16-139 16-141 2-191-84-197-217h-6C748-76 648 20 446 20c-207 0-318-120-318-322 0-266 194-348 454-354l236-4c12-191-40-305-222-305-140 0-220 47-232 172l-188-17c33-204 181-292 423-292 255 0 401 118 401 364v466zm-683-27c0 109 63 184 175 182 166-3 259-96 306-217 24-65 20-120 20-200-232 7-501-28-501 235" id="aH"/><path d="M904-1102c199 0 220 177 220 381V0H956v-686c-3-114 0-215-60-264-70-33-125-4-158 71-26 56-39 140-39 252V0H531v-686c-3-114-1-215-61-264-78-41-136 24-157 84-24 69-39 159-39 259V0H105c-3-360 6-732-6-1082h149c6 50 3 123 8 175 36-100 83-195 216-195 135 0 166 79 196 196 42-105 93-196 236-196" id="aI"/><g id="e"><use transform="matrix(0.010850694444444444,0,0,0.010850694444444444,0,0)" xlink:href="#ax"/><use transform="matrix(0.010850694444444444,0,0,0.010850694444444444,13.335503472222221,0)" xlink:href="#au"/><use transform="matrix(0.010850694444444444,0,0,0.010850694444444444,26.671006944444443,0)" xlink:href="#av"/><use transform="matrix(0.010850694444444444,0,0,0.010850694444444444,40.006510416666664,0)" xlink:href="#aw"/><use transform="matrix(0.010850694444444444,0,0,0.010850694444444444,53.342013888888886,0)" xlink:href="#aF"/><use transform="matrix(0.010850694444444444,0,0,0.010850694444444444,66.67751736111111,0)" xlink:href="#aH"/><use transform="matrix(0.010850694444444444,0,0,0.010850694444444444,80.01302083333334,0)" xlink:href="#aI"/><use transform="matrix(0.010850694444444444,0,0,0.010850694444444444,93.34852430555557,0)" xlink:href="#av"/></g><path d="M839-1335c-182-6-269 67-259 253h491v142H580V0H400v-940H138v-142h262c-15-293 132-408 418-402 94 2 200 7 281 21v145c-75-10-177-14-260-17" id="aJ"/><g id="g"><use transform="matrix(0.010850694444444444,0,0,0.010850694444444444,0,0)" xlink:href="#aJ"/><use transform="matrix(0.010850694444444444,0,0,0.010850694444444444,13.335503472222221,0)" xlink:href="#az"/><use transform="matrix(0.010850694444444444,0,0,0.010850694444444444,26.671006944444443,0)" xlink:href="#aw"/><use transform="matrix(0.010850694444444444,0,0,0.010850694444444444,40.006510416666664,0)" xlink:href="#au"/><use transform="matrix(0.010850694444444444,0,0,0.010850694444444444,53.342013888888886,0)" xlink:href="#aG"/><use transform="matrix(0.010850694444444444,0,0,0.010850694444444444,66.67751736111111,0)" xlink:href="#ay"/><use transform="matrix(0.010850694444444444,0,0,0.010850694444444444,80.01302083333334,0)" xlink:href="#aF"/><use transform="matrix(0.010850694444444444,0,0,0.010850694444444444,93.34852430555557,0)" xlink:href="#aH"/><use transform="matrix(0.010850694444444444,0,0,0.010850694444444444,106.6840277777778,0)" xlink:href="#aI"/><use transform="matrix(0.010850694444444444,0,0,0.010850694444444444,120.01953125000003,0)" xlink:href="#av"/></g><path d="M1048-32c-2 300-135 456-433 456-222-1-358-88-400-267l184-25c22 99 100 157 222 156 184-2 248-125 248-315 0-64 3-133-2-194C807-100 706-13 524-12c-306 0-381-228-381-537 0-318 85-550 400-550 164 0 271 83 325 202h3c1-60 3-134 12-185h171c-13 339-4 702-6 1050zM585-145c210-8 284-178 284-406 0-192-52-331-177-392-33-16-69-22-104-22-223 2-259 184-259 414 0 229 31 415 256 406" id="aK"/><g id="h"><use transform="matrix(0.010850694444444444,0,0,0.010850694444444444,0,0)" xlink:href="#au"/><use transform="matrix(0.010850694444444444,0,0,0.010850694444444444,13.335503472222221,0)" xlink:href="#aG"/><use transform="matrix(0.010850694444444444,0,0,0.010850694444444444,26.671006944444443,0)" xlink:href="#aw"/><use transform="matrix(0.010850694444444444,0,0,0.010850694444444444,40.006510416666664,0)" xlink:href="#az"/><use transform="matrix(0.010850694444444444,0,0,0.010850694444444444,53.342013888888886,0)" xlink:href="#aF"/><use transform="matrix(0.010850694444444444,0,0,0.010850694444444444,66.67751736111111,0)" xlink:href="#aK"/></g><path d="M736-142h380V0H134v-142h422v-1200H267v-142h469v1342" id="aL"/><g id="i"><use transform="matrix(0.010850694444444444,0,0,0.010850694444444444,0,0)" xlink:href="#aL"/><use transform="matrix(0.010850694444444444,0,0,0.010850694444444444,13.335503472222221,0)" xlink:href="#aH"/><use transform="matrix(0.010850694444444444,0,0,0.010850694444444444,26.671006944444443,0)" xlink:href="#au"/><use transform="matrix(0.010850694444444444,0,0,0.010850694444444444,40.006510416666664,0)" xlink:href="#aG"/><use transform="matrix(0.010850694444444444,0,0,0.010850694444444444,53.342013888888886,0)" xlink:href="#ay"/><use transform="matrix(0.010850694444444444,0,0,0.010850694444444444,66.67751736111111,0)" xlink:href="#aF"/><use transform="matrix(0.010850694444444444,0,0,0.010850694444444444,80.01302083333334,0)" xlink:href="#aH"/><use transform="matrix(0.010850694444444444,0,0,0.010850694444444444,93.34852430555557,0)" xlink:href="#aI"/><use transform="matrix(0.010850694444444444,0,0,0.010850694444444444,106.6840277777778,0)" xlink:href="#av"/></g><path d="M677 91c1 136 41 195 171 195h213v139H796c-186-8-294-116-294-303v-351c-3-164-120-222-275-232v-137c155-10 275-69 275-231v-352c6-189 106-303 294-303h265v139H848c-126-3-171 67-171 195v346c-5 158-108 234-231 274 128 36 231 115 231 274V91" id="aM"/><path d="M726 122c-7 187-108 303-294 303H167V286h213c129-2 172-59 172-195v-347c5-160 106-236 230-276-125-36-230-116-230-272v-346c2-128-45-195-172-195H167v-139h265c187 7 294 114 294 303v352c4 162 120 221 275 231v137c-155 10-275 68-275 232v351" id="aN"/><g id="j"><use transform="matrix(0.010850694444444444,0,0,0.010850694444444444,0,0)" xlink:href="#aM"/><use transform="matrix(0.010850694444444444,0,0,0.010850694444444444,13.335503472222221,0)" xlink:href="#av"/><use transform="matrix(0.010850694444444444,0,0,0.010850694444444444,26.671006944444443,0)" xlink:href="#aI"/><use transform="matrix(0.010850694444444444,0,0,0.010850694444444444,40.006510416666664,0)" xlink:href="#aH"/><use transform="matrix(0.010850694444444444,0,0,0.010850694444444444,53.342013888888886,0)" xlink:href="#az"/><use transform="matrix(0.010850694444444444,0,0,0.010850694444444444,66.67751736111111,0)" xlink:href="#aL"/><use transform="matrix(0.010850694444444444,0,0,0.010850694444444444,80.01302083333334,0)" xlink:href="#aN"/></g><path d="M631 20c-350 0-501-215-501-562 0-355 162-560 502-560 250 0 399 118 446 323l-192 14c-23-124-109-196-262-196-242 0-305 171-305 415 1 245 61 427 304 427 151 0 248-77 267-215l190 12C1039-107 883 20 631 20" id="aO"/><g id="k"><use transform="matrix(0.010850694444444444,0,0,0.010850694444444444,0,0)" xlink:href="#aO"/><use transform="matrix(0.010850694444444444,0,0,0.010850694444444444,13.335503472222221,0)" xlink:href="#aw"/><use transform="matrix(0.010850694444444444,0,0,0.010850694444444444,26.671006944444443,0)" xlink:href="#av"/><use transform="matrix(0.010850694444444444,0,0,0.010850694444444444,40.006510416666664,0)" xlink:href="#aH"/><use transform="matrix(0.010850694444444444,0,0,0.010850694444444444,53.342013888888886,0)" xlink:href="#aG"/><use transform="matrix(0.010850694444444444,0,0,0.010850694444444444,66.67751736111111,0)" xlink:href="#av"/><use transform="matrix(0.010850694444444444,0,0,0.010850694444444444,80.01302083333334,0)" xlink:href="#aA"/><use transform="matrix(0.010850694444444444,0,0,0.010850694444444444,93.34852430555557,0)" xlink:href="#ay"/><use transform="matrix(0.010850694444444444,0,0,0.010850694444444444,106.6840277777778,0)" xlink:href="#aH"/><use transform="matrix(0.010850694444444444,0,0,0.010850694444444444,120.01953125000003,0)" xlink:href="#aG"/></g><g id="l"><use transform="matrix(0.010850694444444444,0,0,0.010850694444444444,0,0)" xlink:href="#aA"/><use transform="matrix(0.010850694444444444,0,0,0.010850694444444444,13.335503472222221,0)" xlink:href="#aH"/><use transform="matrix(0.010850694444444444,0,0,0.010850694444444444,26.671006944444443,0)" xlink:href="#aG"/><use transform="matrix(0.010850694444444444,0,0,0.010850694444444444,40.006510416666664,0)" xlink:href="#av"/><use transform="matrix(0.010850694444444444,0,0,0.010850694444444444,53.342013888888886,0)" xlink:href="#aG"/><use transform="matrix(0.010850694444444444,0,0,0.010850694444444444,66.67751736111111,0)" xlink:href="#az"/><use transform="matrix(0.010850694444444444,0,0,0.010850694444444444,80.01302083333334,0)" xlink:href="#aI"/><use transform="matrix(0.010850694444444444,0,0,0.010850694444444444,93.34852430555557,0)" xlink:href="#av"/></g><path d="M1085-747H917c-21-127-127-207-267-207-189 0-294 129-294 362v98c0 233 105 361 294 361 140 0 246-79 267-203h168C1058-115 893 20 653 20c-295 0-467-181-467-492v-142c0-311 172-492 467-492 240 0 404 136 432 359" id="aP"/><path d="M590-486v350h336V0H205v-136h219v-813H183v-136h405v277h22c40-201 175-305 384-305 62 0 121 9 157 24v191c-50-18-120-30-179-30-240 0-382 166-382 442" id="aQ"/><path d="M926-280h165C1058-101 886 20 658 20c-298 0-471-179-471-488v-163c0-286 183-474 459-474 282 0 448 187 448 501v106H355c-14 226 104 370 303 371 137 0 238-58 268-153zM645-959c-181 0-290 124-290 332h571c0-207-106-332-281-332" id="aR"/><path d="M523 19c-207 0-345-130-345-327 0-192 138-306 385-319l298-15v-98c0-136-83-211-234-211-125 0-213 53-241 146H219c20-174 188-293 410-293 255 0 401 130 401 356V1H868v-163h-17C799-46 681 19 523 19zm49-149c164 0 289-109 289-254v-128l-279 13c-152 7-232 72-232 185 0 114 85 184 222 184" id="aS"/><path d="M448-1376h168v294h440v145H618v612c0 118 83 182 236 182 61 0 170-3 199-6V-5C1026 0 894 5 842 5 573 5 448-97 448-323v-614H159v-145h289v-294" id="aT"/><path d="M238-792c0-188 160-314 399-314 226 0 379 113 399 294H872c-20-95-111-153-238-153-138 0-227 64-227 163 0 83 56 130 192 160l153 35c211 48 307 140 307 297 0 200-167 330-424 330-246 0-409-115-428-301h173c25 100 121 158 261 158 148 0 242-67 242-171 0-86-53-132-191-163l-161-37c-196-45-293-144-293-298" id="aU"/><g id="m"><use transform="matrix(0.010850694444444444,0,0,0.010850694444444444,0,0)" xlink:href="#aP"/><use transform="matrix(0.010850694444444444,0,0,0.010850694444444444,13.736979166666666,0)" xlink:href="#aQ"/><use transform="matrix(0.010850694444444444,0,0,0.010850694444444444,27.473958333333332,0)" xlink:href="#aR"/><use transform="matrix(0.010850694444444444,0,0,0.010850694444444444,41.2109375,0)" xlink:href="#aS"/><use transform="matrix(0.010850694444444444,0,0,0.010850694444444444,54.947916666666664,0)" xlink:href="#aT"/><use transform="matrix(0.010850694444444444,0,0,0.010850694444444444,68.68489583333333,0)" xlink:href="#aR"/><use transform="matrix(0.010850694444444444,0,0,0.010850694444444444,82.421875,0)" xlink:href="#aU"/></g><path d="M615-1102c343 0 484 203 482 560-1 347-147 562-488 562-336 0-475-219-479-562-4-349 156-560 485-560zm-8 989c240 0 301-180 301-429 0-245-55-427-290-427-236 0-299 181-299 427 0 243 61 429 288 429" id="aV"/><path d="M365-904c58-129 161-200 334-200 130 0 228 46 293 138s98 233 98 420c0 189-34 331-102 425S824 20 698 20c-170 0-275-64-336-184 0 55-3 116-9 164H179c5-68 6-147 6-223v-1261h180c-2 193 4 394-4 580h4zm283 791c221 0 256-197 256-427 0-229-34-425-254-425-236 0-285 195-285 441 0 237 53 411 283 411" id="aW"/><g id="n"><use transform="matrix(0.010850694444444444,0,0,0.010850694444444444,0,0)" xlink:href="#aC"/><use transform="matrix(0.010850694444444444,0,0,0.010850694444444444,13.335503472222221,0)" xlink:href="#aw"/><use transform="matrix(0.010850694444444444,0,0,0.010850694444444444,26.671006944444443,0)" xlink:href="#aV"/><use transform="matrix(0.010850694444444444,0,0,0.010850694444444444,40.006510416666664,0)" xlink:href="#aW"/><use transform="matrix(0.010850694444444444,0,0,0.010850694444444444,53.342013888888886,0)" xlink:href="#aL"/><use transform="matrix(0.010850694444444444,0,0,0.010850694444444444,66.67751736111111,0)" xlink:href="#av"/><use transform="matrix(0.010850694444444444,0,0,0.010850694444444444,80.01302083333334,0)" xlink:href="#aI"/><use transform="matrix(0.010850694444444444,0,0,0.010850694444444444,93.34852430555557,0)" xlink:href="#au"/></g><path d="M698-1104c312 3 392 244 392 558 0 315-82 566-392 566-169 0-277-65-331-184h-5c8 188 2 394 4 589H185V-858c0-76-1-156-6-224h175c6 52 9 120 10 178h4c58-122 150-202 330-200zm-49 991c225 0 255-203 255-433 0-225-32-419-253-419-236 0-285 192-285 441 0 237 53 411 283 411" id="aX"/><g id="o"><use transform="matrix(0.010850694444444444,0,0,0.010850694444444444,0,0)" xlink:href="#aX"/><use transform="matrix(0.010850694444444444,0,0,0.010850694444444444,13.335503472222221,0)" xlink:href="#aw"/><use transform="matrix(0.010850694444444444,0,0,0.010850694444444444,26.671006944444443,0)" xlink:href="#aV"/><use transform="matrix(0.010850694444444444,0,0,0.010850694444444444,40.006510416666664,0)" xlink:href="#aW"/><use transform="matrix(0.010850694444444444,0,0,0.010850694444444444,53.342013888888886,0)" xlink:href="#aL"/><use transform="matrix(0.010850694444444444,0,0,0.010850694444444444,66.67751736111111,0)" xlink:href="#av"/><use transform="matrix(0.010850694444444444,0,0,0.010850694444444444,80.01302083333334,0)" xlink:href="#aI"/><use transform="matrix(0.010850694444444444,0,0,0.010850694444444444,93.34852430555557,0)" xlink:href="#ay"/><use transform="matrix(0.010850694444444444,0,0,0.010850694444444444,106.6840277777778,0)" xlink:href="#az"/><use transform="matrix(0.010850694444444444,0,0,0.010850694444444444,120.01953125000003,0)" xlink:href="#aA"/></g><g id="p"><use transform="matrix(0.010850694444444444,0,0,0.010850694444444444,0,0)" xlink:href="#aG"/><use transform="matrix(0.010850694444444444,0,0,0.010850694444444444,13.335503472222221,0)" xlink:href="#az"/><use transform="matrix(0.010850694444444444,0,0,0.010850694444444444,26.671006944444443,0)" xlink:href="#aG"/><use transform="matrix(0.010850694444444444,0,0,0.010850694444444444,40.006510416666664,0)" xlink:href="#aL"/><use transform="matrix(0.010850694444444444,0,0,0.010850694444444444,53.342013888888886,0)" xlink:href="#av"/></g><g id="q"><use transform="matrix(0.010850694444444444,0,0,0.010850694444444444,0,0)" xlink:href="#aA"/><use transform="matrix(0.010850694444444444,0,0,0.010850694444444444,13.335503472222221,0)" xlink:href="#av"/><use transform="matrix(0.010850694444444444,0,0,0.010850694444444444,26.671006944444443,0)" xlink:href="#au"/><use transform="matrix(0.010850694444444444,0,0,0.010850694444444444,40.006510416666664,0)" xlink:href="#aO"/><use transform="matrix(0.010850694444444444,0,0,0.010850694444444444,53.342013888888886,0)" xlink:href="#aw"/><use transform="matrix(0.010850694444444444,0,0,0.010850694444444444,66.67751736111111,0)" xlink:href="#az"/><use transform="matrix(0.010850694444444444,0,0,0.010850694444444444,80.01302083333334,0)" xlink:href="#aX"/><use transform="matrix(0.010850694444444444,0,0,0.010850694444444444,93.34852430555557,0)" xlink:href="#aG"/><use transform="matrix(0.010850694444444444,0,0,0.010850694444444444,106.6840277777778,0)" xlink:href="#az"/><use transform="matrix(0.010850694444444444,0,0,0.010850694444444444,120.01953125000003,0)" xlink:href="#aV"/><use transform="matrix(0.010850694444444444,0,0,0.010850694444444444,133.35503472222226,0)" xlink:href="#aF"/></g><path d="M168 279c222 39 310-114 368-290L66-1082h192c120 299 249 590 362 896 115-301 235-597 351-896h190L705 0c-65 164-130 320-275 396-67 36-177 35-262 18V279" id="aY"/><g id="r"><use transform="matrix(0.010850694444444444,0,0,0.010850694444444444,0,0)" xlink:href="#aX"/><use transform="matrix(0.010850694444444444,0,0,0.010850694444444444,13.335503472222221,0)" xlink:href="#aw"/><use transform="matrix(0.010850694444444444,0,0,0.010850694444444444,26.671006944444443,0)" xlink:href="#aV"/><use transform="matrix(0.010850694444444444,0,0,0.010850694444444444,40.006510416666664,0)" xlink:href="#aW"/><use transform="matrix(0.010850694444444444,0,0,0.010850694444444444,53.342013888888886,0)" xlink:href="#aL"/><use transform="matrix(0.010850694444444444,0,0,0.010850694444444444,66.67751736111111,0)" xlink:href="#av"/><use transform="matrix(0.010850694444444444,0,0,0.010850694444444444,80.01302083333334,0)" xlink:href="#aI"/><use transform="matrix(0.010850694444444444,0,0,0.010850694444444444,93.34852430555557,0)" xlink:href="#ay"/><use transform="matrix(0.010850694444444444,0,0,0.010850694444444444,106.6840277777778,0)" xlink:href="#aG"/><use transform="matrix(0.010850694444444444,0,0,0.010850694444444444,120.01953125000003,0)" xlink:href="#aY"/><use transform="matrix(0.010850694444444444,0,0,0.010850694444444444,133.35503472222226,0)" xlink:href="#aX"/><use transform="matrix(0.010850694444444444,0,0,0.010850694444444444,146.69053819444449,0)" xlink:href="#av"/></g><path d="M715 0H502L69-1082h202c94 253 197 500 285 758 19 57 36 126 52 183 96-335 234-626 350-941h201" id="aZ"/><g id="s"><use transform="matrix(0.010850694444444444,0,0,0.010850694444444444,0,0)" xlink:href="#aw"/><use transform="matrix(0.010850694444444444,0,0,0.010850694444444444,13.335503472222221,0)" xlink:href="#av"/><use transform="matrix(0.010850694444444444,0,0,0.010850694444444444,26.671006944444443,0)" xlink:href="#au"/><use transform="matrix(0.010850694444444444,0,0,0.010850694444444444,40.006510416666664,0)" xlink:href="#aV"/><use transform="matrix(0.010850694444444444,0,0,0.010850694444444444,53.342013888888886,0)" xlink:href="#aL"/><use transform="matrix(0.010850694444444444,0,0,0.010850694444444444,66.67751736111111,0)" xlink:href="#aZ"/><use transform="matrix(0.010850694444444444,0,0,0.010850694444444444,80.01302083333334,0)" xlink:href="#av"/><use transform="matrix(0.010850694444444444,0,0,0.010850694444444444,93.34852430555557,0)" xlink:href="#aA"/></g><g id="t"><use transform="matrix(0.010850694444444444,0,0,0.010850694444444444,0,0)" xlink:href="#aW"/><use transform="matrix(0.010850694444444444,0,0,0.010850694444444444,13.335503472222221,0)" xlink:href="#aV"/><use transform="matrix(0.010850694444444444,0,0,0.010850694444444444,26.671006944444443,0)" xlink:href="#aV"/><use transform="matrix(0.010850694444444444,0,0,0.010850694444444444,40.006510416666664,0)" xlink:href="#aL"/></g><path d="M188 0v-1511h164v618h14c57-135 182-211 348-211 236 0 364 142 364 401V0H908v-660c0-195-80-288-250-288-179 0-300 125-300 310V0H188" id="ba"/><path d="M1152 312H114V165h1038v147" id="bb"/><path d="M633 20c-287 0-470-187-470-480v-164c0-293 183-480 470-480s470 187 470 480v164c0 293-183 480-470 480zm0-974c-186 0-302 132-302 345v133c0 214 116 345 302 345s302-131 302-345v-133c0-213-116-345-302-345" id="bc"/><path d="M1107 0H208v-141h371v-1229H211v-141h538v1370h358V0" id="bd"/><path d="M1077-1085V0H914v-191h-14C842-56 718 20 553 20c-236 0-364-141-364-401v-704h170v661c0 196 80 288 249 288 179 0 299-125 299-310v-639h170" id="be"/><path d="M652-1351c-80 0-141-60-141-140 0-79 61-139 141-139s141 60 141 139c0 80-61 140-141 140zM1107 0H208v-141h372v-803H211v-141h537v944h359V0" id="bf"/><path d="M189 0v-1085h163v191h14c58-135 182-211 347-211 236 0 364 141 364 401V0H907v-661c0-196-80-288-249-288-179 0-299 125-299 310V0H189" id="bg"/><g id="u"><use transform="matrix(0.010850694444444444,0,0,0.010850694444444444,0,0)" xlink:href="#ba"/><use transform="matrix(0.010850694444444444,0,0,0.010850694444444444,13.736979166666666,0)" xlink:href="#aS"/><use transform="matrix(0.010850694444444444,0,0,0.010850694444444444,27.473958333333332,0)" xlink:href="#aU"/><use transform="matrix(0.010850694444444444,0,0,0.010850694444444444,41.2109375,0)" xlink:href="#bb"/><use transform="matrix(0.010850694444444444,0,0,0.010850694444444444,54.947916666666664,0)" xlink:href="#aU"/><use transform="matrix(0.010850694444444444,0,0,0.010850694444444444,68.68489583333333,0)" xlink:href="#bc"/><use transform="matrix(0.010850694444444444,0,0,0.010850694444444444,82.421875,0)" xlink:href="#bd"/><use transform="matrix(0.010850694444444444,0,0,0.010850694444444444,96.15885416666666,0)" xlink:href="#be"/><use transform="matrix(0.010850694444444444,0,0,0.010850694444444444,109.89583333333334,0)" xlink:href="#aT"/><use transform="matrix(0.010850694444444444,0,0,0.010850694444444444,123.63281250000001,0)" xlink:href="#bf"/><use transform="matrix(0.010850694444444444,0,0,0.010850694444444444,137.36979166666669,0)" xlink:href="#bc"/><use transform="matrix(0.010850694444444444,0,0,0.010850694444444444,151.10677083333334,0)" xlink:href="#bg"/><use transform="matrix(0.010850694444444444,0,0,0.010850694444444444,164.84375,0)" xlink:href="#aU"/></g><path d="M614-1226c-167 1-283 53-283 213 0 183 186 193 334 234 230 63 463 120 463 409 0 286-219 387-518 390C309 23 131-98 79-338l185-37c34 165 149 248 351 246 184-2 324-58 324-238 0-203-207-221-372-266-210-57-422-111-422-377 0-267 201-356 470-360 279-5 430 101 480 324l-188 33c-28-141-121-215-293-213" id="bh"/><g id="v"><use transform="matrix(0.010850694444444444,0,0,0.010850694444444444,0,0)" xlink:href="#bh"/><use transform="matrix(0.010850694444444444,0,0,0.010850694444444444,13.335503472222221,0)" xlink:href="#aV"/><use transform="matrix(0.010850694444444444,0,0,0.010850694444444444,26.671006944444443,0)" xlink:href="#aL"/><use transform="matrix(0.010850694444444444,0,0,0.010850694444444444,40.006510416666664,0)" xlink:href="#ax"/><use transform="matrix(0.010850694444444444,0,0,0.010850694444444444,53.342013888888886,0)" xlink:href="#aG"/><use transform="matrix(0.010850694444444444,0,0,0.010850694444444444,66.67751736111111,0)" xlink:href="#az"/><use transform="matrix(0.010850694444444444,0,0,0.010850694444444444,80.01302083333334,0)" xlink:href="#aV"/><use transform="matrix(0.010850694444444444,0,0,0.010850694444444444,93.34852430555557,0)" xlink:href="#aF"/><use transform="matrix(0.010850694444444444,0,0,0.010850694444444444,106.6840277777778,0)" xlink:href="#au"/></g><g id="w"><use transform="matrix(0.010850694444444444,0,0,0.010850694444444444,0,0)" xlink:href="#au"/><use transform="matrix(0.010850694444444444,0,0,0.010850694444444444,13.335503472222221,0)" xlink:href="#aV"/><use transform="matrix(0.010850694444444444,0,0,0.010850694444444444,26.671006944444443,0)" xlink:href="#aL"/><use transform="matrix(0.010850694444444444,0,0,0.010850694444444444,40.006510416666664,0)" xlink:href="#ax"/><use transform="matrix(0.010850694444444444,0,0,0.010850694444444444,53.342013888888886,0)" xlink:href="#aG"/><use transform="matrix(0.010850694444444444,0,0,0.010850694444444444,66.67751736111111,0)" xlink:href="#az"/><use transform="matrix(0.010850694444444444,0,0,0.010850694444444444,80.01302083333334,0)" xlink:href="#aV"/><use transform="matrix(0.010850694444444444,0,0,0.010850694444444444,93.34852430555557,0)" xlink:href="#aF"/><use transform="matrix(0.010850694444444444,0,0,0.010850694444444444,106.6840277777778,0)" xlink:href="#ay"/><use transform="matrix(0.010850694444444444,0,0,0.010850694444444444,120.01953125000003,0)" xlink:href="#az"/><use transform="matrix(0.010850694444444444,0,0,0.010850694444444444,133.35503472222226,0)" xlink:href="#aA"/></g><g id="x"><use transform="matrix(0.010850694444444444,0,0,0.010850694444444444,0,0)" xlink:href="#aO"/><use transform="matrix(0.010850694444444444,0,0,0.010850694444444444,13.335503472222221,0)" xlink:href="#aV"/><use transform="matrix(0.010850694444444444,0,0,0.010850694444444444,26.671006944444443,0)" xlink:href="#aA"/><use transform="matrix(0.010850694444444444,0,0,0.010850694444444444,40.006510416666664,0)" xlink:href="#av"/><use transform="matrix(0.010850694444444444,0,0,0.010850694444444444,53.342013888888886,0)" xlink:href="#ay"/><use transform="matrix(0.010850694444444444,0,0,0.010850694444444444,66.67751736111111,0)" xlink:href="#au"/><use transform="matrix(0.010850694444444444,0,0,0.010850694444444444,80.01302083333334,0)" xlink:href="#aF"/><use transform="matrix(0.010850694444444444,0,0,0.010850694444444444,93.34852430555557,0)" xlink:href="#az"/><use transform="matrix(0.010850694444444444,0,0,0.010850694444444444,106.6840277777778,0)" xlink:href="#aX"/><use transform="matrix(0.010850694444444444,0,0,0.010850694444444444,120.01953125000003,0)" xlink:href="#aX"/><use transform="matrix(0.010850694444444444,0,0,0.010850694444444444,133.35503472222226,0)" xlink:href="#av"/><use transform="matrix(0.010850694444444444,0,0,0.010850694444444444,146.69053819444449,0)" xlink:href="#aG"/></g><path d="M932 0L611-444 288 0H94l415-556-397-526h199l300 421 298-421h201L713-558 1133 0H932" id="bi"/><g id="y"><use transform="matrix(0.010850694444444444,0,0,0.010850694444444444,0,0)" xlink:href="#av"/><use transform="matrix(0.010850694444444444,0,0,0.010850694444444444,13.335503472222221,0)" xlink:href="#bi"/><use transform="matrix(0.010850694444444444,0,0,0.010850694444444444,26.671006944444443,0)" xlink:href="#aX"/><use transform="matrix(0.010850694444444444,0,0,0.010850694444444444,40.006510416666664,0)" xlink:href="#aL"/><use transform="matrix(0.010850694444444444,0,0,0.010850694444444444,53.342013888888886,0)" xlink:href="#aH"/><use transform="matrix(0.010850694444444444,0,0,0.010850694444444444,66.67751736111111,0)" xlink:href="#aF"/><use transform="matrix(0.010850694444444444,0,0,0.010850694444444444,80.01302083333334,0)" xlink:href="#aH"/><use transform="matrix(0.010850694444444444,0,0,0.010850694444444444,93.34852430555557,0)" xlink:href="#aG"/><use transform="matrix(0.010850694444444444,0,0,0.010850694444444444,106.6840277777778,0)" xlink:href="#az"/><use transform="matrix(0.010850694444444444,0,0,0.010850694444444444,120.01953125000003,0)" xlink:href="#aV"/><use transform="matrix(0.010850694444444444,0,0,0.010850694444444444,133.35503472222226,0)" xlink:href="#aF"/></g><path d="M648-963c-190 6-283 138-283 336V0H185v-1484h181c-2 197 6 404-9 587h3c62-120 159-205 339-205 242 0 351 135 350 381V0H868v-695c1-168-57-273-220-268" id="bj"/><g id="z"><use transform="matrix(0.010850694444444444,0,0,0.010850694444444444,0,0)" xlink:href="#aH"/><use transform="matrix(0.010850694444444444,0,0,0.010850694444444444,13.335503472222221,0)" xlink:href="#aX"/><use transform="matrix(0.010850694444444444,0,0,0.010850694444444444,26.671006944444443,0)" xlink:href="#aX"/><use transform="matrix(0.010850694444444444,0,0,0.010850694444444444,40.006510416666664,0)" xlink:href="#aw"/><use transform="matrix(0.010850694444444444,0,0,0.010850694444444444,53.342013888888886,0)" xlink:href="#aV"/><use transform="matrix(0.010850694444444444,0,0,0.010850694444444444,66.67751736111111,0)" xlink:href="#aH"/><use transform="matrix(0.010850694444444444,0,0,0.010850694444444444,80.01302083333334,0)" xlink:href="#aO"/><use transform="matrix(0.010850694444444444,0,0,0.010850694444444444,93.34852430555557,0)" xlink:href="#bj"/><use transform="matrix(0.010850694444444444,0,0,0.010850694444444444,106.6840277777778,0)" xlink:href="#ay"/><use transform="matrix(0.010850694444444444,0,0,0.010850694444444444,120.01953125000003,0)" xlink:href="#aG"/><use transform="matrix(0.010850694444444444,0,0,0.010850694444444444,133.35503472222226,0)" xlink:href="#aY"/><use transform="matrix(0.010850694444444444,0,0,0.010850694444444444,146.69053819444449,0)" xlink:href="#aX"/><use transform="matrix(0.010850694444444444,0,0,0.010850694444444444,160.0260416666667,0)" xlink:href="#av"/></g><g id="A"><use transform="matrix(0.010850694444444444,0,0,0.010850694444444444,0,0)" xlink:href="#aZ"/><use transform="matrix(0.010850694444444444,0,0,0.010850694444444444,13.335503472222221,0)" xlink:href="#av"/><use transform="matrix(0.010850694444444444,0,0,0.010850694444444444,26.671006944444443,0)" xlink:href="#aw"/><use transform="matrix(0.010850694444444444,0,0,0.010850694444444444,40.006510416666664,0)" xlink:href="#au"/><use transform="matrix(0.010850694444444444,0,0,0.010850694444444444,53.342013888888886,0)" xlink:href="#az"/><use transform="matrix(0.010850694444444444,0,0,0.010850694444444444,66.67751736111111,0)" xlink:href="#aV"/><use transform="matrix(0.010850694444444444,0,0,0.010850694444444444,80.01302083333334,0)" xlink:href="#aF"/><use transform="matrix(0.010850694444444444,0,0,0.010850694444444444,93.34852430555557,0)" xlink:href="#ay"/><use transform="matrix(0.010850694444444444,0,0,0.010850694444444444,106.6840277777778,0)" xlink:href="#aF"/><use transform="matrix(0.010850694444444444,0,0,0.010850694444444444,120.01953125000003,0)" xlink:href="#ax"/><use transform="matrix(0.010850694444444444,0,0,0.010850694444444444,133.35503472222226,0)" xlink:href="#aI"/><use transform="matrix(0.010850694444444444,0,0,0.010850694444444444,146.69053819444449,0)" xlink:href="#aW"/><use transform="matrix(0.010850694444444444,0,0,0.010850694444444444,160.0260416666667,0)" xlink:href="#av"/><use transform="matrix(0.010850694444444444,0,0,0.010850694444444444,173.36154513888894,0)" xlink:href="#aw"/></g><g id="B"><use transform="matrix(0.010850694444444444,0,0,0.010850694444444444,0,0)" xlink:href="#aW"/><use transform="matrix(0.010850694444444444,0,0,0.010850694444444444,13.335503472222221,0)" xlink:href="#aw"/><use transform="matrix(0.010850694444444444,0,0,0.010850694444444444,26.671006944444443,0)" xlink:href="#aH"/><use transform="matrix(0.010850694444444444,0,0,0.010850694444444444,40.006510416666664,0)" xlink:href="#aF"/><use transform="matrix(0.010850694444444444,0,0,0.010850694444444444,53.342013888888886,0)" xlink:href="#aO"/><use transform="matrix(0.010850694444444444,0,0,0.010850694444444444,66.67751736111111,0)" xlink:href="#bj"/><use transform="matrix(0.010850694444444444,0,0,0.010850694444444444,80.01302083333334,0)" xlink:href="#ay"/><use transform="matrix(0.010850694444444444,0,0,0.010850694444444444,93.34852430555557,0)" xlink:href="#aG"/><use transform="matrix(0.010850694444444444,0,0,0.010850694444444444,106.6840277777778,0)" xlink:href="#aY"/><use transform="matrix(0.010850694444444444,0,0,0.010850694444444444,120.01953125000003,0)" xlink:href="#aX"/><use transform="matrix(0.010850694444444444,0,0,0.010850694444444444,133.35503472222226,0)" xlink:href="#av"/></g><g id="C"><use transform="matrix(0.010850694444444444,0,0,0.010850694444444444,0,0)" xlink:href="#az"/><use transform="matrix(0.010850694444444444,0,0,0.010850694444444444,13.335503472222221,0)" xlink:href="#aI"/><use transform="matrix(0.010850694444444444,0,0,0.010850694444444444,26.671006944444443,0)" xlink:href="#aX"/><use transform="matrix(0.010850694444444444,0,0,0.010850694444444444,40.006510416666664,0)" xlink:href="#aw"/><use transform="matrix(0.010850694444444444,0,0,0.010850694444444444,53.342013888888886,0)" xlink:href="#aV"/><use transform="matrix(0.010850694444444444,0,0,0.010850694444444444,66.67751736111111,0)" xlink:href="#aZ"/><use transform="matrix(0.010850694444444444,0,0,0.010850694444444444,80.01302083333334,0)" xlink:href="#av"/><use transform="matrix(0.010850694444444444,0,0,0.010850694444444444,93.34852430555557,0)" xlink:href="#aI"/><use transform="matrix(0.010850694444444444,0,0,0.010850694444444444,106.6840277777778,0)" xlink:href="#av"/><use transform="matrix(0.010850694444444444,0,0,0.010850694444444444,120.01953125000003,0)" xlink:href="#aF"/><use transform="matrix(0.010850694444444444,0,0,0.010850694444444444,133.35503472222226,0)" xlink:href="#aG"/><use transform="matrix(0.010850694444444444,0,0,0.010850694444444444,146.69053819444449,0)" xlink:href="#ay"/><use transform="matrix(0.010850694444444444,0,0,0.010850694444444444,160.0260416666667,0)" xlink:href="#aA"/><use transform="matrix(0.010850694444444444,0,0,0.010850694444444444,173.36154513888894,0)" xlink:href="#av"/><use transform="matrix(0.010850694444444444,0,0,0.010850694444444444,186.69704861111117,0)" xlink:href="#au"/><use transform="matrix(0.010850694444444444,0,0,0.010850694444444444,200.0325520833334,0)" xlink:href="#aO"/><use transform="matrix(0.010850694444444444,0,0,0.010850694444444444,213.36805555555563,0)" xlink:href="#aw"/><use transform="matrix(0.010850694444444444,0,0,0.010850694444444444,226.70355902777786,0)" xlink:href="#az"/><use transform="matrix(0.010850694444444444,0,0,0.010850694444444444,240.03906250000006,0)" xlink:href="#aX"/><use transform="matrix(0.010850694444444444,0,0,0.010850694444444444,253.37456597222234,0)" xlink:href="#aG"/><use transform="matrix(0.010850694444444444,0,0,0.010850694444444444,266.7100694444445,0)" xlink:href="#az"/><use transform="matrix(0.010850694444444444,0,0,0.010850694444444444,280.04557291666674,0)" xlink:href="#aV"/><use transform="matrix(0.010850694444444444,0,0,0.010850694444444444,293.38107638888897,0)" xlink:href="#aF"/></g><g id="D"><use transform="matrix(0.010850694444444444,0,0,0.010850694444444444,0,0)" xlink:href="#au"/><use transform="matrix(0.010850694444444444,0,0,0.010850694444444444,13.335503472222221,0)" xlink:href="#ax"/><use transform="matrix(0.010850694444444444,0,0,0.010850694444444444,26.671006944444443,0)" xlink:href="#aO"/><use transform="matrix(0.010850694444444444,0,0,0.010850694444444444,40.006510416666664,0)" xlink:href="#aO"/><use transform="matrix(0.010850694444444444,0,0,0.010850694444444444,53.342013888888886,0)" xlink:href="#av"/><use transform="matrix(0.010850694444444444,0,0,0.010850694444444444,66.67751736111111,0)" xlink:href="#au"/><use transform="matrix(0.010850694444444444,0,0,0.010850694444444444,80.01302083333334,0)" xlink:href="#au"/><use transform="matrix(0.010850694444444444,0,0,0.010850694444444444,93.34852430555557,0)" xlink:href="#ay"/><use transform="matrix(0.010850694444444444,0,0,0.010850694444444444,106.6840277777778,0)" xlink:href="#aw"/><use transform="matrix(0.010850694444444444,0,0,0.010850694444444444,120.01953125000003,0)" xlink:href="#aH"/><use transform="matrix(0.010850694444444444,0,0,0.010850694444444444,133.35503472222226,0)" xlink:href="#aG"/><use transform="matrix(0.010850694444444444,0,0,0.010850694444444444,146.69053819444449,0)" xlink:href="#av"/></g><g id="E"><use transform="matrix(0.010850694444444444,0,0,0.010850694444444444,0,0)" xlink:href="#aJ"/><use transform="matrix(0.010850694444444444,0,0,0.010850694444444444,13.335503472222221,0)" xlink:href="#aL"/><use transform="matrix(0.010850694444444444,0,0,0.010850694444444444,26.671006944444443,0)" xlink:href="#aV"/><use transform="matrix(0.010850694444444444,0,0,0.010850694444444444,40.006510416666664,0)" xlink:href="#aH"/><use transform="matrix(0.010850694444444444,0,0,0.010850694444444444,53.342013888888886,0)" xlink:href="#aG"/></g><path d="M143-1085h182l303 903h13l301-903h181L727 0H540" id="bk"/><g id="F"><use transform="matrix(0.010850694444444444,0,0,0.010850694444444444,0,0)" xlink:href="#aR"/><use transform="matrix(0.010850694444444444,0,0,0.010850694444444444,13.736979166666666,0)" xlink:href="#bg"/><use transform="matrix(0.010850694444444444,0,0,0.010850694444444444,27.473958333333332,0)" xlink:href="#bk"/><use transform="matrix(0.010850694444444444,0,0,0.010850694444444444,41.2109375,0)" xlink:href="#bc"/><use transform="matrix(0.010850694444444444,0,0,0.010850694444444444,54.947916666666664,0)" xlink:href="#bd"/><use transform="matrix(0.010850694444444444,0,0,0.010850694444444444,68.68489583333333,0)" xlink:href="#bk"/><use transform="matrix(0.010850694444444444,0,0,0.010850694444444444,82.421875,0)" xlink:href="#aR"/></g><path d="M473 0v-937H182v-145h291v-109c0-210 130-308 397-308 63 0 214 5 250 10v139c-47-5-187-9-248-9-151 0-231 56-231 165v112h479v145H643V0H473" id="bl"/><path d="M1156-799V0h-153v-749c0-132-48-201-139-201-95 0-153 83-153 218V0H559v-750c0-131-48-200-140-200-96 0-156 83-156 218V0H110v-1085h152v153h18c27-109 105-173 207-173s174 63 197 170h18c28-104 115-170 224-170 151 0 230 105 230 306" id="bm"/><g id="G"><use transform="matrix(0.010850694444444444,0,0,0.010850694444444444,0,0)" xlink:href="#bl"/><use transform="matrix(0.010850694444444444,0,0,0.010850694444444444,13.736979166666666,0)" xlink:href="#aQ"/><use transform="matrix(0.010850694444444444,0,0,0.010850694444444444,27.473958333333332,0)" xlink:href="#bc"/><use transform="matrix(0.010850694444444444,0,0,0.010850694444444444,41.2109375,0)" xlink:href="#bm"/></g><path d="M688-575H356V0H182v-1443h484c286 0 465 166 465 434 0 189-105 344-269 398L1156 0H957zm-332-711v562h286c199 0 311-101 311-281 0-179-110-281-303-281H356" id="bn"/><g id="H"><use transform="matrix(0.010850694444444444,0,0,0.010850694444444444,0,0)" xlink:href="#bn"/><use transform="matrix(0.010850694444444444,0,0,0.010850694444444444,13.736979166666666,0)" xlink:href="#aR"/><use transform="matrix(0.010850694444444444,0,0,0.010850694444444444,27.473958333333332,0)" xlink:href="#aU"/><use transform="matrix(0.010850694444444444,0,0,0.010850694444444444,41.2109375,0)" xlink:href="#bc"/><use transform="matrix(0.010850694444444444,0,0,0.010850694444444444,54.947916666666664,0)" xlink:href="#be"/><use transform="matrix(0.010850694444444444,0,0,0.010850694444444444,68.68489583333333,0)" xlink:href="#aQ"/><use transform="matrix(0.010850694444444444,0,0,0.010850694444444444,82.421875,0)" xlink:href="#aP"/><use transform="matrix(0.010850694444444444,0,0,0.010850694444444444,96.15885416666666,0)" xlink:href="#aR"/><use transform="matrix(0.010850694444444444,0,0,0.010850694444444444,109.89583333333334,0)" xlink:href="#aU"/></g><path d="M565 18c-251 0-415-181-415-460v-202c0-278 164-459 415-459 157 0 273 67 320 186h18v-594h173V0H909v-166h-19C834-46 720 18 565 18zm50-155c178 0 293-128 293-329v-156c0-200-115-328-293-328-179 0-294 128-294 328v156c0 200 115 329 294 329" id="bo"/><g id="I"><use transform="matrix(0.010850694444444444,0,0,0.010850694444444444,0,0)" xlink:href="#aQ"/><use transform="matrix(0.010850694444444444,0,0,0.010850694444444444,13.736979166666666,0)" xlink:href="#aR"/><use transform="matrix(0.010850694444444444,0,0,0.010850694444444444,27.473958333333332,0)" xlink:href="#aU"/><use transform="matrix(0.010850694444444444,0,0,0.010850694444444444,41.2109375,0)" xlink:href="#bc"/><use transform="matrix(0.010850694444444444,0,0,0.010850694444444444,54.947916666666664,0)" xlink:href="#be"/><use transform="matrix(0.010850694444444444,0,0,0.010850694444444444,68.68489583333333,0)" xlink:href="#aQ"/><use transform="matrix(0.010850694444444444,0,0,0.010850694444444444,82.421875,0)" xlink:href="#aP"/><use transform="matrix(0.010850694444444444,0,0,0.010850694444444444,96.15885416666666,0)" xlink:href="#aR"/><use transform="matrix(0.010850694444444444,0,0,0.010850694444444444,109.89583333333334,0)" xlink:href="#bb"/><use transform="matrix(0.010850694444444444,0,0,0.010850694444444444,123.63281250000001,0)" xlink:href="#bf"/><use transform="matrix(0.010850694444444444,0,0,0.010850694444444444,137.36979166666669,0)" xlink:href="#bo"/></g><path d="M415-722c0-339 102-634 301-860h169c-207 291-294 546-294 860s87 569 294 860H716C517-88 415-382 415-722" id="bp"/><path d="M198-1443h480c280 0 463 183 463 463 0 279-185 462-467 462H375V0H198v-1443zm177 157v611h259c210 0 328-109 328-305 0-197-118-306-328-306H375" id="bq"/><path d="M389 0H216v-1443h173v718h13l584-718h206L658-805 1244 0h-219L539-669 389-491V0" id="br"/><path d="M851-722c0 340-102 634-301 860H381c207-291 294-546 294-860s-87-569-294-860h169c199 226 301 521 301 860" id="bs"/><g id="J"><use transform="matrix(0.010850694444444444,0,0,0.010850694444444444,0,0)" xlink:href="#bp"/><use transform="matrix(0.010850694444444444,0,0,0.010850694444444444,13.736979166666666,0)" xlink:href="#bq"/><use transform="matrix(0.010850694444444444,0,0,0.010850694444444444,27.473958333333332,0)" xlink:href="#br"/><use transform="matrix(0.010850694444444444,0,0,0.010850694444444444,41.2109375,0)" xlink:href="#bs"/></g><g id="K"><use transform="matrix(0.010850694444444444,0,0,0.010850694444444444,0,0)" xlink:href="#bf"/><use transform="matrix(0.010850694444444444,0,0,0.010850694444444444,13.736979166666666,0)" xlink:href="#bg"/><use transform="matrix(0.010850694444444444,0,0,0.010850694444444444,27.473958333333332,0)" xlink:href="#aT"/></g><g id="L"><use transform="matrix(0.010850694444444444,0,0,0.010850694444444444,0,0)" xlink:href="#be"/><use transform="matrix(0.010850694444444444,0,0,0.010850694444444444,13.736979166666666,0)" xlink:href="#aQ"/><use transform="matrix(0.010850694444444444,0,0,0.010850694444444444,27.473958333333332,0)" xlink:href="#bd"/></g><path d="M633-137c210 0 332-138 332-375v-931h176v942c0 332-190 531-508 531S125-169 125-501v-942h176v931c0 237 122 375 332 375" id="bt"/><path d="M565-1103c155 0 268 64 325 184h18v-166h168V366H903v-534h-19C837-49 722 18 565 18c-251 0-415-181-415-459v-202c0-279 164-460 415-460zm49 156c-179 0-293 128-293 328v156c0 200 114 329 293 329s293-128 293-329v-156c0-200-114-328-293-328" id="bu"/><g id="M"><use transform="matrix(0.010850694444444444,0,0,0.010850694444444444,0,0)" xlink:href="#bt"/><use transform="matrix(0.010850694444444444,0,0,0.010850694444444444,13.736979166666666,0)" xlink:href="#bg"/><use transform="matrix(0.010850694444444444,0,0,0.010850694444444444,27.473958333333332,0)" xlink:href="#bf"/><use transform="matrix(0.010850694444444444,0,0,0.010850694444444444,41.2109375,0)" xlink:href="#bu"/><use transform="matrix(0.010850694444444444,0,0,0.010850694444444444,54.947916666666664,0)" xlink:href="#be"/><use transform="matrix(0.010850694444444444,0,0,0.010850694444444444,68.68489583333333,0)" xlink:href="#aR"/></g><path d="M601 407c-251 0-419-110-441-290h168c22 90 131 149 276 149 190 0 295-96 295-270v-169h-18C833-59 713 10 555 10c-251 0-416-181-416-459v-195c0-279 166-459 420-459 157 0 276 69 323 186h19v-168h168V0c0 255-174 407-468 407zM310-473c0 199 116 329 296 329 179 0 294-129 294-329v-149c0-200-115-328-294-328-180 0-296 129-296 328v149" id="bv"/><g id="N"><use transform="matrix(0.010850694444444444,0,0,0.010850694444444444,0,0)" xlink:href="#aU"/><use transform="matrix(0.010850694444444444,0,0,0.010850694444444444,13.736979166666666,0)" xlink:href="#aT"/><use transform="matrix(0.010850694444444444,0,0,0.010850694444444444,27.473958333333332,0)" xlink:href="#aQ"/><use transform="matrix(0.010850694444444444,0,0,0.010850694444444444,41.2109375,0)" xlink:href="#bf"/><use transform="matrix(0.010850694444444444,0,0,0.010850694444444444,54.947916666666664,0)" xlink:href="#bg"/><use transform="matrix(0.010850694444444444,0,0,0.010850694444444444,68.68489583333333,0)" xlink:href="#bv"/></g><g id="O"><use transform="matrix(0.010850694444444444,0,0,0.010850694444444444,0,0)" xlink:href="#aT"/><use transform="matrix(0.010850694444444444,0,0,0.010850694444444444,13.736979166666666,0)" xlink:href="#bf"/><use transform="matrix(0.010850694444444444,0,0,0.010850694444444444,27.473958333333332,0)" xlink:href="#aT"/><use transform="matrix(0.010850694444444444,0,0,0.010850694444444444,41.2109375,0)" xlink:href="#bd"/><use transform="matrix(0.010850694444444444,0,0,0.010850694444444444,54.947916666666664,0)" xlink:href="#aR"/></g><path d="M701-1103c251 0 415 181 415 460v202c0 278-164 459-415 459-157 0-272-67-319-186h-19v534H190v-1451h168v166h18c57-120 170-184 325-184zm-49 156c-179 0-293 128-293 328v156c0 201 114 329 293 329s293-129 293-329v-156c0-200-114-328-293-328" id="bw"/><g id="P"><use transform="matrix(0.010850694444444444,0,0,0.010850694444444444,0,0)" xlink:href="#aU"/><use transform="matrix(0.010850694444444444,0,0,0.010850694444444444,13.736979166666666,0)" xlink:href="#bc"/><use transform="matrix(0.010850694444444444,0,0,0.010850694444444444,27.473958333333332,0)" xlink:href="#be"/><use transform="matrix(0.010850694444444444,0,0,0.010850694444444444,41.2109375,0)" xlink:href="#aQ"/><use transform="matrix(0.010850694444444444,0,0,0.010850694444444444,54.947916666666664,0)" xlink:href="#aP"/><use transform="matrix(0.010850694444444444,0,0,0.010850694444444444,68.68489583333333,0)" xlink:href="#aR"/><use transform="matrix(0.010850694444444444,0,0,0.010850694444444444,82.421875,0)" xlink:href="#bb"/><use transform="matrix(0.010850694444444444,0,0,0.010850694444444444,96.15885416666666,0)" xlink:href="#bw"/><use transform="matrix(0.010850694444444444,0,0,0.010850694444444444,109.89583333333334,0)" xlink:href="#bd"/><use transform="matrix(0.010850694444444444,0,0,0.010850694444444444,123.63281250000001,0)" xlink:href="#aS"/><use transform="matrix(0.010850694444444444,0,0,0.010850694444444444,137.36979166666669,0)" xlink:href="#aT"/><use transform="matrix(0.010850694444444444,0,0,0.010850694444444444,151.10677083333334,0)" xlink:href="#bl"/><use transform="matrix(0.010850694444444444,0,0,0.010850694444444444,164.84375,0)" xlink:href="#bc"/><use transform="matrix(0.010850694444444444,0,0,0.010850694444444444,178.58072916666666,0)" xlink:href="#aQ"/><use transform="matrix(0.010850694444444444,0,0,0.010850694444444444,192.31770833333331,0)" xlink:href="#bm"/></g><path d="M716 40C607 334 519 401 256 383V234c146 18 209-21 263-168l19-59-399-1092h185l304 908h13l303-908h181" id="bx"/><g id="Q"><use transform="matrix(0.010850694444444444,0,0,0.010850694444444444,0,0)" xlink:href="#aP"/><use transform="matrix(0.010850694444444444,0,0,0.010850694444444444,13.736979166666666,0)" xlink:href="#bc"/><use transform="matrix(0.010850694444444444,0,0,0.010850694444444444,27.473958333333332,0)" xlink:href="#bg"/><use transform="matrix(0.010850694444444444,0,0,0.010850694444444444,41.2109375,0)" xlink:href="#aT"/><use transform="matrix(0.010850694444444444,0,0,0.010850694444444444,54.947916666666664,0)" xlink:href="#aR"/><use transform="matrix(0.010850694444444444,0,0,0.010850694444444444,68.68489583333333,0)" xlink:href="#bg"/><use transform="matrix(0.010850694444444444,0,0,0.010850694444444444,82.421875,0)" xlink:href="#aT"/><use transform="matrix(0.010850694444444444,0,0,0.010850694444444444,96.15885416666666,0)" xlink:href="#bb"/><use transform="matrix(0.010850694444444444,0,0,0.010850694444444444,109.89583333333334,0)" xlink:href="#aU"/><use transform="matrix(0.010850694444444444,0,0,0.010850694444444444,123.63281250000001,0)" xlink:href="#be"/><use transform="matrix(0.010850694444444444,0,0,0.010850694444444444,137.36979166666669,0)" xlink:href="#bm"/><use transform="matrix(0.010850694444444444,0,0,0.010850694444444444,151.10677083333334,0)" xlink:href="#bm"/><use transform="matrix(0.010850694444444444,0,0,0.010850694444444444,164.84375,0)" xlink:href="#aS"/><use transform="matrix(0.010850694444444444,0,0,0.010850694444444444,178.58072916666666,0)" xlink:href="#aQ"/><use transform="matrix(0.010850694444444444,0,0,0.010850694444444444,192.31770833333331,0)" xlink:href="#bx"/></g><g id="R"><use transform="matrix(0.010850694444444444,0,0,0.010850694444444444,0,0)" xlink:href="#bk"/><use transform="matrix(0.010850694444444444,0,0,0.010850694444444444,13.736979166666666,0)" xlink:href="#bf"/><use transform="matrix(0.010850694444444444,0,0,0.010850694444444444,27.473958333333332,0)" xlink:href="#aU"/><use transform="matrix(0.010850694444444444,0,0,0.010850694444444444,41.2109375,0)" xlink:href="#bf"/><use transform="matrix(0.010850694444444444,0,0,0.010850694444444444,54.947916666666664,0)" xlink:href="#aT"/><use transform="matrix(0.010850694444444444,0,0,0.010850694444444444,68.68489583333333,0)" xlink:href="#bb"/><use transform="matrix(0.010850694444444444,0,0,0.010850694444444444,82.421875,0)" xlink:href="#aP"/><use transform="matrix(0.010850694444444444,0,0,0.010850694444444444,96.15885416666666,0)" xlink:href="#bc"/><use transform="matrix(0.010850694444444444,0,0,0.010850694444444444,109.89583333333334,0)" xlink:href="#be"/><use transform="matrix(0.010850694444444444,0,0,0.010850694444444444,123.63281250000001,0)" xlink:href="#bg"/><use transform="matrix(0.010850694444444444,0,0,0.010850694444444444,137.36979166666669,0)" xlink:href="#aT"/></g><g id="S"><use transform="matrix(0.010850694444444444,0,0,0.010850694444444444,0,0)" xlink:href="#bl"/><use transform="matrix(0.010850694444444444,0,0,0.010850694444444444,13.736979166666666,0)" xlink:href="#bf"/><use transform="matrix(0.010850694444444444,0,0,0.010850694444444444,27.473958333333332,0)" xlink:href="#aQ"/><use transform="matrix(0.010850694444444444,0,0,0.010850694444444444,41.2109375,0)" xlink:href="#aU"/><use transform="matrix(0.010850694444444444,0,0,0.010850694444444444,54.947916666666664,0)" xlink:href="#aT"/><use transform="matrix(0.010850694444444444,0,0,0.010850694444444444,68.68489583333333,0)" xlink:href="#bb"/><use transform="matrix(0.010850694444444444,0,0,0.010850694444444444,82.421875,0)" xlink:href="#bk"/><use transform="matrix(0.010850694444444444,0,0,0.010850694444444444,96.15885416666666,0)" xlink:href="#bf"/><use transform="matrix(0.010850694444444444,0,0,0.010850694444444444,109.89583333333334,0)" xlink:href="#aU"/><use transform="matrix(0.010850694444444444,0,0,0.010850694444444444,123.63281250000001,0)" xlink:href="#bf"/><use transform="matrix(0.010850694444444444,0,0,0.010850694444444444,137.36979166666669,0)" xlink:href="#aT"/><use transform="matrix(0.010850694444444444,0,0,0.010850694444444444,151.10677083333334,0)" xlink:href="#aR"/><use transform="matrix(0.010850694444444444,0,0,0.010850694444444444,164.84375,0)" xlink:href="#bo"/><use transform="matrix(0.010850694444444444,0,0,0.010850694444444444,178.58072916666666,0)" xlink:href="#bb"/><use transform="matrix(0.010850694444444444,0,0,0.010850694444444444,192.31770833333331,0)" xlink:href="#aS"/><use transform="matrix(0.010850694444444444,0,0,0.010850694444444444,206.05468749999994,0)" xlink:href="#aT"/></g><g id="T"><use transform="matrix(0.010850694444444444,0,0,0.010850694444444444,0,0)" xlink:href="#bo"/><use transform="matrix(0.010850694444444444,0,0,0.010850694444444444,13.736979166666666,0)" xlink:href="#aS"/><use transform="matrix(0.010850694444444444,0,0,0.010850694444444444,27.473958333333332,0)" xlink:href="#aT"/><use transform="matrix(0.010850694444444444,0,0,0.010850694444444444,41.2109375,0)" xlink:href="#aR"/><use transform="matrix(0.010850694444444444,0,0,0.010850694444444444,54.947916666666664,0)" xlink:href="#aT"/><use transform="matrix(0.010850694444444444,0,0,0.010850694444444444,68.68489583333333,0)" xlink:href="#bf"/><use transform="matrix(0.010850694444444444,0,0,0.010850694444444444,82.421875,0)" xlink:href="#bm"/><use transform="matrix(0.010850694444444444,0,0,0.010850694444444444,96.15885416666666,0)" xlink:href="#aR"/></g><g id="U"><use transform="matrix(0.010850694444444444,0,0,0.010850694444444444,0,0)" xlink:href="#bd"/><use transform="matrix(0.010850694444444444,0,0,0.010850694444444444,13.736979166666666,0)" xlink:href="#aS"/><use transform="matrix(0.010850694444444444,0,0,0.010850694444444444,27.473958333333332,0)" xlink:href="#aU"/><use transform="matrix(0.010850694444444444,0,0,0.010850694444444444,41.2109375,0)" xlink:href="#aT"/><use transform="matrix(0.010850694444444444,0,0,0.010850694444444444,54.947916666666664,0)" xlink:href="#bb"/><use transform="matrix(0.010850694444444444,0,0,0.010850694444444444,68.68489583333333,0)" xlink:href="#bk"/><use transform="matrix(0.010850694444444444,0,0,0.010850694444444444,82.421875,0)" xlink:href="#bf"/><use transform="matrix(0.010850694444444444,0,0,0.010850694444444444,96.15885416666666,0)" xlink:href="#aU"/><use transform="matrix(0.010850694444444444,0,0,0.010850694444444444,109.89583333333334,0)" xlink:href="#bf"/><use transform="matrix(0.010850694444444444,0,0,0.010850694444444444,123.63281250000001,0)" xlink:href="#aT"/><use transform="matrix(0.010850694444444444,0,0,0.010850694444444444,137.36979166666669,0)" xlink:href="#aR"/><use transform="matrix(0.010850694444444444,0,0,0.010850694444444444,151.10677083333334,0)" xlink:href="#bo"/><use transform="matrix(0.010850694444444444,0,0,0.010850694444444444,164.84375,0)" xlink:href="#bb"/><use transform="matrix(0.010850694444444444,0,0,0.010850694444444444,178.58072916666666,0)" xlink:href="#aS"/><use transform="matrix(0.010850694444444444,0,0,0.010850694444444444,192.31770833333331,0)" xlink:href="#aT"/></g><g id="V"><use transform="matrix(0.010850694444444444,0,0,0.010850694444444444,0,0)" xlink:href="#be"/><use transform="matrix(0.010850694444444444,0,0,0.010850694444444444,13.736979166666666,0)" xlink:href="#aU"/><use transform="matrix(0.010850694444444444,0,0,0.010850694444444444,27.473958333333332,0)" xlink:href="#aR"/><use transform="matrix(0.010850694444444444,0,0,0.010850694444444444,41.2109375,0)" xlink:href="#bl"/><use transform="matrix(0.010850694444444444,0,0,0.010850694444444444,54.947916666666664,0)" xlink:href="#be"/><use transform="matrix(0.010850694444444444,0,0,0.010850694444444444,68.68489583333333,0)" xlink:href="#bd"/><use transform="matrix(0.010850694444444444,0,0,0.010850694444444444,82.421875,0)" xlink:href="#bg"/><use transform="matrix(0.010850694444444444,0,0,0.010850694444444444,96.15885416666666,0)" xlink:href="#aR"/><use transform="matrix(0.010850694444444444,0,0,0.010850694444444444,109.89583333333334,0)" xlink:href="#aU"/><use transform="matrix(0.010850694444444444,0,0,0.010850694444444444,123.63281250000001,0)" xlink:href="#aU"/><use transform="matrix(0.010850694444444444,0,0,0.010850694444444444,137.36979166666669,0)" xlink:href="#bb"/><use transform="matrix(0.010850694444444444,0,0,0.010850694444444444,151.10677083333334,0)" xlink:href="#aU"/><use transform="matrix(0.010850694444444444,0,0,0.010850694444444444,164.84375,0)" xlink:href="#aP"/><use transform="matrix(0.010850694444444444,0,0,0.010850694444444444,178.58072916666666,0)" xlink:href="#bc"/><use transform="matrix(0.010850694444444444,0,0,0.010850694444444444,192.31770833333331,0)" xlink:href="#aQ"/><use transform="matrix(0.010850694444444444,0,0,0.010850694444444444,206.05468749999994,0)" xlink:href="#aR"/></g><g id="W"><use transform="matrix(0.010850694444444444,0,0,0.010850694444444444,0,0)" xlink:href="#bl"/><use transform="matrix(0.010850694444444444,0,0,0.010850694444444444,13.736979166666666,0)" xlink:href="#bd"/><use transform="matrix(0.010850694444444444,0,0,0.010850694444444444,27.473958333333332,0)" xlink:href="#bc"/><use transform="matrix(0.010850694444444444,0,0,0.010850694444444444,41.2109375,0)" xlink:href="#aS"/><use transform="matrix(0.010850694444444444,0,0,0.010850694444444444,54.947916666666664,0)" xlink:href="#aT"/></g><path d="M139-384h172c18 158 145 254 337 254s318-100 318-255c0-125-84-200-279-248l-124-31c-268-68-389-195-389-404 0-246 185-405 473-405 272 0 459 157 471 397H946c-18-149-128-237-298-237-185 0-296 88-296 235 0 125 80 197 268 244l126 32c280 69 398 191 398 408 0 259-195 424-497 424-298 0-493-158-508-414" id="by"/><g id="X"><use transform="matrix(0.010850694444444444,0,0,0.010850694444444444,0,0)" xlink:href="#by"/><use transform="matrix(0.010850694444444444,0,0,0.010850694444444444,13.736979166666666,0)" xlink:href="#bc"/><use transform="matrix(0.010850694444444444,0,0,0.010850694444444444,27.473958333333332,0)" xlink:href="#bd"/><use transform="matrix(0.010850694444444444,0,0,0.010850694444444444,41.2109375,0)" xlink:href="#be"/><use transform="matrix(0.010850694444444444,0,0,0.010850694444444444,54.947916666666664,0)" xlink:href="#aT"/><use transform="matrix(0.010850694444444444,0,0,0.010850694444444444,68.68489583333333,0)" xlink:href="#bf"/><use transform="matrix(0.010850694444444444,0,0,0.010850694444444444,82.421875,0)" xlink:href="#bc"/><use transform="matrix(0.010850694444444444,0,0,0.010850694444444444,96.15885416666666,0)" xlink:href="#bg"/></g><g id="Y"><use transform="matrix(0.010850694444444444,0,0,0.010850694444444444,0,0)" xlink:href="#bn"/><use transform="matrix(0.010850694444444444,0,0,0.010850694444444444,13.736979166666666,0)" xlink:href="#aR"/><use transform="matrix(0.010850694444444444,0,0,0.010850694444444444,27.473958333333332,0)" xlink:href="#aU"/><use transform="matrix(0.010850694444444444,0,0,0.010850694444444444,41.2109375,0)" xlink:href="#bc"/><use transform="matrix(0.010850694444444444,0,0,0.010850694444444444,54.947916666666664,0)" xlink:href="#be"/><use transform="matrix(0.010850694444444444,0,0,0.010850694444444444,68.68489583333333,0)" xlink:href="#aQ"/><use transform="matrix(0.010850694444444444,0,0,0.010850694444444444,82.421875,0)" xlink:href="#aP"/><use transform="matrix(0.010850694444444444,0,0,0.010850694444444444,96.15885416666666,0)" xlink:href="#aR"/><use transform="matrix(0.010850694444444444,0,0,0.010850694444444444,109.89583333333334,0)" xlink:href="#aU"/></g><path d="M709-1193V0H519v-1193H76v-156h1076v156H709" id="bz"/><g id="Z"><use transform="matrix(0.010850694444444444,0,0,0.010850694444444444,0,0)" xlink:href="#bz"/><use transform="matrix(0.010850694444444444,0,0,0.010850694444444444,13.335503472222221,0)" xlink:href="#aH"/><use transform="matrix(0.010850694444444444,0,0,0.010850694444444444,26.671006944444443,0)" xlink:href="#aK"/><use transform="matrix(0.010850694444444444,0,0,0.010850694444444444,40.006510416666664,0)" xlink:href="#au"/></g><g id="aa"><use transform="matrix(0.010850694444444444,0,0,0.010850694444444444,0,0)" xlink:href="#aG"/><use transform="matrix(0.010850694444444444,0,0,0.010850694444444444,13.335503472222221,0)" xlink:href="#aH"/><use transform="matrix(0.010850694444444444,0,0,0.010850694444444444,26.671006944444443,0)" xlink:href="#aK"/><use transform="matrix(0.010850694444444444,0,0,0.010850694444444444,40.006510416666664,0)" xlink:href="#ay"/><use transform="matrix(0.010850694444444444,0,0,0.010850694444444444,53.342013888888886,0)" xlink:href="#az"/><use transform="matrix(0.010850694444444444,0,0,0.010850694444444444,66.67751736111111,0)" xlink:href="#aA"/></g><g id="ab"><use transform="matrix(0.010850694444444444,0,0,0.010850694444444444,0,0)" xlink:href="#aG"/><use transform="matrix(0.010850694444444444,0,0,0.010850694444444444,13.335503472222221,0)" xlink:href="#aH"/><use transform="matrix(0.010850694444444444,0,0,0.010850694444444444,26.671006944444443,0)" xlink:href="#aK"/><use transform="matrix(0.010850694444444444,0,0,0.010850694444444444,40.006510416666664,0)" xlink:href="#ay"/><use transform="matrix(0.010850694444444444,0,0,0.010850694444444444,53.342013888888886,0)" xlink:href="#aF"/><use transform="matrix(0.010850694444444444,0,0,0.010850694444444444,66.67751736111111,0)" xlink:href="#aH"/><use transform="matrix(0.010850694444444444,0,0,0.010850694444444444,80.01302083333334,0)" xlink:href="#aI"/><use transform="matrix(0.010850694444444444,0,0,0.010850694444444444,93.34852430555557,0)" xlink:href="#av"/></g><path d="M530 26c-303-6-392-228-392-558 0-187 33-329 98-424s162-142 293-142c178 0 273 69 334 184 1-56 3-122 12-169h175c-6 88-6 180-6 282V425H863c1-202-4-411 4-607h-2C805-59 713 29 530 26zm47-139c234 0 286-193 286-441 0-238-55-411-284-411-223 0-255 198-255 427 0 227 33 425 253 425" id="bA"/><g id="ac"><use transform="matrix(0.010850694444444444,0,0,0.010850694444444444,0,0)" xlink:href="#at"/><use transform="matrix(0.010850694444444444,0,0,0.010850694444444444,13.335503472222221,0)" xlink:href="#aF"/><use transform="matrix(0.010850694444444444,0,0,0.010850694444444444,26.671006944444443,0)" xlink:href="#az"/><use transform="matrix(0.010850694444444444,0,0,0.010850694444444444,40.006510416666664,0)" xlink:href="#bA"/><use transform="matrix(0.010850694444444444,0,0,0.010850694444444444,53.342013888888886,0)" xlink:href="#ax"/><use transform="matrix(0.010850694444444444,0,0,0.010850694444444444,66.67751736111111,0)" xlink:href="#av"/></g><g id="ad"><use transform="matrix(0.010850694444444444,0,0,0.010850694444444444,0,0)" xlink:href="#aO"/><use transform="matrix(0.010850694444444444,0,0,0.010850694444444444,13.335503472222221,0)" xlink:href="#aH"/><use transform="matrix(0.010850694444444444,0,0,0.010850694444444444,26.671006944444443,0)" xlink:href="#aG"/><use transform="matrix(0.010850694444444444,0,0,0.010850694444444444,40.006510416666664,0)" xlink:href="#av"/><use transform="matrix(0.010850694444444444,0,0,0.010850694444444444,53.342013888888886,0)" xlink:href="#aK"/><use transform="matrix(0.010850694444444444,0,0,0.010850694444444444,66.67751736111111,0)" xlink:href="#aV"/><use transform="matrix(0.010850694444444444,0,0,0.010850694444444444,80.01302083333334,0)" xlink:href="#aw"/><use transform="matrix(0.010850694444444444,0,0,0.010850694444444444,93.34852430555557,0)" xlink:href="#aY"/></g><g id="ae"><use transform="matrix(0.010850694444444444,0,0,0.010850694444444444,0,0)" xlink:href="#ba"/><use transform="matrix(0.010850694444444444,0,0,0.010850694444444444,13.736979166666666,0)" xlink:href="#aS"/><use transform="matrix(0.010850694444444444,0,0,0.010850694444444444,27.473958333333332,0)" xlink:href="#aU"/><use transform="matrix(0.010850694444444444,0,0,0.010850694444444444,41.2109375,0)" xlink:href="#bb"/><use transform="matrix(0.010850694444444444,0,0,0.010850694444444444,54.947916666666664,0)" xlink:href="#aT"/><use transform="matrix(0.010850694444444444,0,0,0.010850694444444444,68.68489583333333,0)" xlink:href="#aS"/><use transform="matrix(0.010850694444444444,0,0,0.010850694444444444,82.421875,0)" xlink:href="#bv"/><use transform="matrix(0.010850694444444444,0,0,0.010850694444444444,96.15885416666666,0)" xlink:href="#aU"/></g><path d="M180 0v-1490h224l606 953c40 63 108 177 176 312-27-437-7-821-13-1265h190V0h-226C860-448 622-778 356-1262c27 476 11 792 15 1262H180" id="bB"/><use transform="matrix(0.010850694444444444,0,0,0.010850694444444444,0,0)" xlink:href="#bB" id="af"/><use transform="matrix(0.010850694444444444,0,0,0.010850694444444444,0,0)" xlink:href="#bB" id="ah"/><path d="M180 0v-1490h270l367 940c28 72 75 218 110 339 35-117 81-264 110-339l362-940h271V0h-187c2-448-5-837 7-1287-157 497-311 829-483 1287H842C666-458 514-784 354-1284c12 438 5 843 7 1284H180" id="bC"/><use transform="matrix(0.010850694444444444,0,0,0.010850694444444444,0,0)" xlink:href="#bC" id="aj"/><path d="M653-1490V0H466v-1314h-10L96-1047v-204l324-239h233" id="bD"/><use transform="matrix(0.010850694444444444,0,0,0.010850694444444444,0,0)" xlink:href="#bD" id="al"/><use transform="matrix(0.010850694444444444,0,0,0.010850694444444444,0,0)" xlink:href="#bD" id="am"/><use transform="matrix(0.010850694444444444,0,0,0.010850694444444444,0,0)" xlink:href="#bC" id="an"/><path d="M1525 28c17 108-114 40-205 57L546-1241V56c0 46-137 46-148 0v-1434c-17-97 108-51 188-51L1377-81v-1326c0-46 137-46 148 0V27" id="bE"/><use transform="matrix(0.010850694444444444,0,0,0.010850694444444444,0,0)" xlink:href="#bE" id="ao"/><path d="M701 18c-155 0-269-64-325-184h-19V0H190v-1511h173v594h18c48-119 163-186 320-186 251 0 415 181 415 459v202c0 279-164 460-415 460zm-50-155c180 0 294-129 294-329v-156c0-200-114-328-294-328-178 0-292 128-292 328v156c0 201 114 329 292 329" id="bF"/><g id="ap"><use transform="matrix(0.010850694444444444,0,0,0.010850694444444444,0,0)" xlink:href="#bq"/><use transform="matrix(0.010850694444444444,0,0,0.010850694444444444,13.736979166666666,0)" xlink:href="#aQ"/><use transform="matrix(0.010850694444444444,0,0,0.010850694444444444,27.473958333333332,0)" xlink:href="#bc"/><use transform="matrix(0.010850694444444444,0,0,0.010850694444444444,41.2109375,0)" xlink:href="#bF"/><use transform="matrix(0.010850694444444444,0,0,0.010850694444444444,54.947916666666664,0)" xlink:href="#bd"/><use transform="matrix(0.010850694444444444,0,0,0.010850694444444444,68.68489583333333,0)" xlink:href="#aR"/><use transform="matrix(0.010850694444444444,0,0,0.010850694444444444,82.421875,0)" xlink:href="#bm"/><use transform="matrix(0.010850694444444444,0,0,0.010850694444444444,96.15885416666666,0)" xlink:href="#aU"/></g><path d="M1219-1085L986 0H823L639-846h-12L443 0H280L47-1085h166l147 870h18l175-869h160l175 869h18l147-870h166" id="bG"/><g id="aq"><use transform="matrix(0.010850694444444444,0,0,0.010850694444444444,0,0)" xlink:href="#bc"/><use transform="matrix(0.010850694444444444,0,0,0.010850694444444444,13.736979166666666,0)" xlink:href="#bG"/><use transform="matrix(0.010850694444444444,0,0,0.010850694444444444,27.473958333333332,0)" xlink:href="#bg"/><use transform="matrix(0.010850694444444444,0,0,0.010850694444444444,41.2109375,0)" xlink:href="#aU"/></g><g id="ar"><use transform="matrix(0.010850694444444444,0,0,0.010850694444444444,0,0)" xlink:href="#bn"/><use transform="matrix(0.010850694444444444,0,0,0.010850694444444444,13.736979166666666,0)" xlink:href="#aR"/><use transform="matrix(0.010850694444444444,0,0,0.010850694444444444,27.473958333333332,0)" xlink:href="#aU"/><use transform="matrix(0.010850694444444444,0,0,0.010850694444444444,41.2109375,0)" xlink:href="#bc"/><use transform="matrix(0.010850694444444444,0,0,0.010850694444444444,54.947916666666664,0)" xlink:href="#be"/><use transform="matrix(0.010850694444444444,0,0,0.010850694444444444,68.68489583333333,0)" xlink:href="#aQ"/><use transform="matrix(0.010850694444444444,0,0,0.010850694444444444,82.421875,0)" xlink:href="#aP"/><use transform="matrix(0.010850694444444444,0,0,0.010850694444444444,96.15885416666666,0)" xlink:href="#aR"/></g><path d="M721 0H545v-1281H109v-162h1048v162H721V0" id="bH"/><g id="as"><use transform="matrix(0.010850694444444444,0,0,0.010850694444444444,0,0)" xlink:href="#bH"/><use transform="matrix(0.010850694444444444,0,0,0.010850694444444444,13.736979166666666,0)" xlink:href="#aS"/><use transform="matrix(0.010850694444444444,0,0,0.010850694444444444,27.473958333333332,0)" xlink:href="#bv"/><use transform="matrix(0.010850694444444444,0,0,0.010850694444444444,41.2109375,0)" xlink:href="#aU"/></g></defs></g></svg>